<?xml version="1.0" encoding="UTF-8"?>
<svg id="Calque_2" data-name="Calque 2" xmlns="http://www.w3.org/2000/svg" viewBox="0 0 208.64 207.39">
  <g id="Calque_2-2" data-name="Calque 2">
    <g id="uuid-02a974f2-e26a-4321-8fa3-01d2fef47fea" data-name="Calque 2-2">
      <g>
        <path d="M105.04,207.38C46.51,208.14-1.48,160,.04,100.94,1.43,47.1,44.48,2.92,98.26.14c59-3.05,108.36,43.68,109.12,102.21.25,19.4-4.91,38.43-14.92,54.93.44,5.48,8.08,23.67,15.38,38.1,1.44,2.8.9,6.21-1.3,8.46s-5.59,2.89-8.42,1.59c-14.83-6.92-33.51-13.94-39-14.09-16.2,10.24-34.92,15.79-54.09,16.03M102.55,14.82C53.52,15.45,14.19,55.81,14.83,104.84c.63,49.03,40.99,88.36,90.02,87.72,16.74-.21,33.09-5.15,47.15-14.24,2.35-1.59,7.42-4.76,34,5.78-11.45-26.07-8.33-31.15-6.88-33.54,8.92-14.41,13.6-30.99,13.38-48.02-.63-49.03-40.99-88.36-90.02-87.72h.07,0ZM132.93,72.52c-8.39.11-15.11,7.26-14.59,15.72.46,7.52,6.73,13.63,14.26,13.89,8.48.3,15.45-6.61,15.34-15-.03-8.07-6.63-14.65-14.71-14.62h-.3,0ZM69.41,73.34c-8.39.11-15.11,7.26-14.59,15.72.46,7.52,6.73,13.63,14.26,13.89,8.48.3,15.45-6.61,15.34-15-.03-8.07-6.63-14.65-14.71-14.62h-.3Z"/>
        <path d="M156.35,125.15c-.16,1.41-.46,2.75-.77,4.12-.38,1.31-.8,2.63-1.28,3.93-.49,1.29-1.1,2.51-1.68,3.78-.63,1.23-1.35,2.39-2.05,3.61-2.96,4.69-6.81,8.84-11.22,12.36l-3.41,2.51c-1.19.76-2.4,1.49-3.62,2.21-1.24.67-2.48,1.38-3.77,1.98-1.29.58-2.59,1.17-3.92,1.68-5.31,2.05-10.92,3.34-16.59,3.84s-11.39.22-16.94-.83c-2.78-.51-5.51-1.24-8.16-2.17-2.66-.87-5.24-2-7.71-3.27-4.94-2.57-9.49-5.81-13.34-9.72-.93-1.03-1.9-1.96-2.75-3.05-.84-1.1-1.71-2.12-2.46-3.28-.76-1.14-1.47-2.31-2.14-3.51-.62-1.25-1.22-2.48-1.71-3.81l.98-1.25c3.79,2.8,7.83,5.26,12.05,7.32,4.19,2.1,8.57,3.82,13.07,5.1,8.98,2.58,18.42,3.59,27.7,2.69,9.29-.77,18.41-3.43,26.7-7.71,4.15-2.13,8.08-4.71,11.72-7.66,3.67-2.91,7.04-6.22,10.05-9.84l1.25.98h0Z"/>
      </g>
    </g>
  </g>
</svg>