<?xml version="1.0" encoding="UTF-8"?>
<svg id="Calque_2" data-name="Calque 2" xmlns="http://www.w3.org/2000/svg" viewBox="0 0 204 201">
  <defs>
    <style>
      .cls-1 {
        fill: #fff;
      }

      .cls-2 {
        fill-rule: evenodd;
      }
    </style>
  </defs>
  <g id="Calque_2-2" data-name="Calque 2">
    <g id="uuid-2e62d6a5-a057-4ba9-a2a8-a30a11a18077" data-name="Calque 2-2">
      <g>
        <path class="cls-2" d="M130.9,0H2.99v127.91h64.1c-2.52,37.76,26.05,70.42,63.81,72.94s70.42-26.05,72.94-63.81c2.52-37.76-26.05-70.42-63.81-72.94-3.04-.2-6.09-.2-9.12,0V0h0ZM67.09,127.91c2.29-34.25,29.56-61.53,63.81-63.81v63.81h-63.81Z"/>
        <path class="cls-1" d="M.06,99.33l2.18-.23c13.14-6.97,17.93-13.02,26.83-24.92,4.48-5.98,8.18-12.44,11.26-19.24s6.05-14.54,11.4-20.27c9.41-10.05,24.46-12.22,37.47-9.79,15.83,2.95,29.49,12.49,42.6,21.3,6.32,4.24,12.62,8.46,19.83,11.05,6.33,2.27,13.52,3.28,19.83.42,1.54-.7,2.92-1.65,4.21-2.73,1.48-1.24-.65-3.35-2.12-2.12-5.37,4.48-12.58,4.17-18.93,2.26-7.19-2.16-13.48-6.23-19.66-10.37-13.2-8.83-26.72-18.5-42.44-22.17-12.99-3.04-28.01-1.92-38.89,6.43-6,4.6-9.78,11.06-12.9,17.82s-6.16,13.8-10.29,20.21C22.42,79.41,12.71,89.31.05,96.96c-.53.15,3.09-1.82,1.46-.95"/>
      </g>
    </g>
  </g>
</svg>