<?xml version="1.0" encoding="UTF-8"?>
<svg id="Calque_2" data-name="Calque 2" xmlns="http://www.w3.org/2000/svg" viewBox="0 0 201.81 172.88">
  <g id="Calque_2-2" data-name="Calque 2">
    <g id="uuid-6ce27cce-056a-4d20-a6ae-b87a1f8f5298" data-name="Calque 2-2">
      <path d="M19.83,18.2h118.29c5,0,9.1-4.09,9.1-9.1s-4.09-9.1-9.1-9.1H19.83c-5,0-9.1,4.09-9.1,9.1s4.09,9.1,9.1,9.1M129.01,118.29h18.2v-27.3h1.64c5.73,0,10.01-5.28,8.92-10.92l-9.1-45.49c-.82-4.19-4.55-7.28-8.92-7.28H18.19c-4.37,0-8.1,3.09-8.92,7.28L.17,80.07c-1.09,5.64,3.18,10.92,8.92,10.92h1.64v45.49c0,5,4.09,9.1,9.1,9.1h63.69c5,0,9.1-4.09,9.1-9.1v-45.49h36.4v27.3h-.01ZM74.42,127.38H28.93v-36.4h45.49s0,36.4,0,36.4Z"/>
      <path d="M192.71,127.38h-18.2v-18.2c0-5-4.09-9.1-9.1-9.1s-9.1,4.09-9.1,9.1v18.2h-18.2c-5,0-9.1,4.09-9.1,9.1s4.09,9.1,9.1,9.1h18.2v18.2c0,5,4.09,9.1,9.1,9.1s9.1-4.09,9.1-9.1v-18.2h18.2c5,0,9.1-4.09,9.1-9.1s-4.09-9.1-9.1-9.1"/>
    </g>
  </g>
</svg>