<?xml version="1.0" encoding="UTF-8" standalone="no"?>
<svg
   id="Calque_2"
   data-name="Calque 2"
   viewBox="0 0 166.56 227.12387"
   version="1.1"
   sodipodi:docname="merchandising.svg"
   width="166.56"
   height="227.12387"
   inkscape:version="1.4 (86a8ad7, 2024-10-11)"
   xmlns:inkscape="http://www.inkscape.org/namespaces/inkscape"
   xmlns:sodipodi="http://sodipodi.sourceforge.net/DTD/sodipodi-0.dtd"
   xmlns="http://www.w3.org/2000/svg"
   xmlns:svg="http://www.w3.org/2000/svg">
  <defs
     id="defs1" />
  <sodipodi:namedview
     id="namedview1"
     pagecolor="#505050"
     bordercolor="#eeeeee"
     borderopacity="1"
     inkscape:showpageshadow="0"
     inkscape:pageopacity="0"
     inkscape:pagecheckerboard="0"
     inkscape:deskcolor="#505050"
     inkscape:zoom="4.5766101"
     inkscape:cx="93.300498"
     inkscape:cy="140.06"
     inkscape:window-width="2560"
     inkscape:window-height="1566"
     inkscape:window-x="2869"
     inkscape:window-y="-11"
     inkscape:window-maximized="1"
     inkscape:current-layer="Calque_2" />
  <g
     id="Calque_2-2"
     data-name="Calque 2">
    <g
       id="uuid-0d061815-b242-49e6-8b8e-2173dcc3bd59"
       data-name="Calque 2-2">
      <path
         d="m 122.44,0 c 25.47,0 44.12,20.74 44.12,49.21 0,26.42 -15.08,50.86 -39.7,73.15 -2.52,2.28 -5.09,4.49 -7.71,6.63 l 16.9,84.55 c 1.23,6.15 -2.76,12.13 -8.91,13.36 -2.03,0.41 -4.14,0.25 -6.09,-0.46 L 84.57,213.18 c -0.83,-0.3 -1.74,-0.3 -2.57,0 l -36.48,13.26 c -5.9,2.14 -12.41,-0.91 -14.55,-6.81 -0.71,-1.95 -0.87,-4.06 -0.46,-6.09 l 16.88,-84.55 c -2.63,-2.15 -5.2,-4.36 -7.72,-6.63 C 15.09,100.07 0,75.63 0,49.21 0,20.74 18.66,0 44.12,0 58.7,0 72.03,6.1 81.58,16.25 l 1.7,1.89 1.7,-1.89 C 94.01,6.63 106.38,0.84 119.55,0.08 Z M 67.61,143.78 56.74,198.2 74.23,191.84 c 4.99,-1.81 10.42,-2.08 15.57,-0.77 l 2.54,0.77 17.47,6.36 -10.87,-54.39 c -3.03,1.97 -5.58,3.55 -7.65,4.75 l -2.56,1.47 c -3.4,1.86 -7.51,1.86 -10.9,0 -2.65,-1.48 -5.25,-3.03 -7.8,-4.66 z M 122.44,22.71 c -13.07,0 -24.39,8.78 -28.26,22.09 -3.16,10.92 -18.64,10.92 -21.8,0 C 68.52,31.49 57.19,22.71 44.12,22.71 c -12.36,0 -21.41,10.07 -21.41,26.5 0,18.63 11.9,37.92 32.22,56.31 7.42,6.71 15.41,12.81 23.41,18.14 l 4.92,3.18 1.15,-0.71 3.8,-2.47 c 8.25,-5.45 16.07,-11.51 23.41,-18.14 20.32,-18.4 32.22,-37.7 32.22,-56.31 0,-16.43 -9.06,-26.5 -21.41,-26.5"
         id="path1" />
    </g>
  </g>
</svg>
