<?xml version="1.0" encoding="UTF-8"?>
<svg id="Calque_2" data-name="Calque 2" xmlns="http://www.w3.org/2000/svg" viewBox="0 0 179.87 180.64">
  <g id="Calque_2-2" data-name="Calque 2">
    <g id="uuid-38197d9d-9ecb-439d-b9cc-c35633587908" data-name="Calque 2-2">
      <path class="cls-1" d="M4.5,156.21c0,11.01,8.92,19.93,19.93,19.93s19.93-8.92,19.93-19.93-8.92-19.93-19.93-19.93-19.93,8.92-19.93,19.93M70.95,137.39h37.97v37.97h-37.97v-37.97ZM175.36,175.35h-45.56l22.78-41.76,22.79,41.76h0ZM118.41,33.76c.03-15.73-12.7-28.5-28.43-28.53s-28.5,12.7-28.53,28.43c-.02,11.34,6.69,21.61,17.09,26.15v13.81h22.78v-13.81c10.37-4.52,17.08-14.75,17.09-26.06M25.39,116.5v-18.98h129.08v18.98M149.24,38.67h11.39M146.88,64.79l8.05,8.06M146.88,12.56l8.05-8.06M30.62,38.67h-11.39M32.98,64.79l-8.06,8.06M32.98,12.56l-8.06-8.06M89.93,73.62v39.09"/>
    </g>
  </g>
</svg>