<?xml version="1.0" encoding="UTF-8"?>
<svg id="Calque_2" data-name="Calque 2" xmlns="http://www.w3.org/2000/svg" viewBox="0 0 228.64 212.49">
  <g id="Calque_2-2" data-name="Calque 2">
    <g id="uuid-05b46780-f7db-4b22-b350-c815c42b2f71" data-name="Calque 2-2">
      <path d="M0,67.81C0,40.34,23.96,18.08,53.51,18.08c22.44,0,41.62,12.85,49.57,31.05C108.04,21.27,134.01,0,165.4,0c34.92,0,63.24,26.32,63.24,58.77s-26.53,56.99-59.89,58.62c.95,1.4,1.52,3.01,1.52,4.68v29.38l34.05-15.82v67.82l-34.38-15.98c-1.07,3.81-4.88,6.93-9.41,6.93h-29.19v18.09h-43.78v-18.09h-24.32c-5.33,0-9.73-4.32-9.73-9.04v-40.69l-24.32,4.52v-31.65l24.32,4.52c0-1.64.56-3.21,1.47-4.59-.49,0-.97.07-1.47.07C23.96,117.54,0,95.27,0,67.81M10.03,75.06c.17,6.3,5.8,11.27,12.57,11.12,6.54-.15,11.8-5.04,11.96-11.12-.17-6.3-5.8-11.27-12.57-11.12-6.54.15-11.8,5.04-11.96,11.12M34.56,31.27c-6.77,0-12.26,5.1-12.26,11.39s5.49,11.39,12.26,11.39,12.26-5.1,12.26-11.39-5.48-11.39-12.25-11.4h-.01M42.55,69.54c0,1.57,1.37,2.85,3.07,2.85s3.07-1.28,3.07-2.85-1.37-2.85-3.07-2.85-3.07,1.28-3.07,2.85M48.68,58.59c-1.69,0-3.07,1.28-3.07,2.85s1.38,2.85,3.07,2.85h0c1.69,0,3.07-1.28,3.07-2.85s-1.38-2.85-3.07-2.85M53.42,72.39c-1.7,0-3.07,1.28-3.07,2.85s1.38,2.85,3.07,2.85,3.07-1.28,3.07-2.85h0c0-1.57-1.38-2.85-3.07-2.85M55.09,61.44c0,1.57,1.36,2.85,3.06,2.85s3.07-1.27,3.07-2.84h0c0-1.57-1.36-2.85-3.06-2.85s-3.07,1.27-3.07,2.84M58.16,69.54c0,1.57,1.37,2.85,3.06,2.85s3.07-1.27,3.07-2.85h0c0-1.57-1.37-2.85-3.06-2.85s-3.07,1.27-3.07,2.85M142.99,15.58c-8-.21-14.67,5.65-14.9,13.09-.22,7.44,6.08,13.64,14.08,13.84h.81c8-.21,14.31-6.41,14.08-13.84-.22-7.14-6.4-12.89-14.08-13.09M152.44,60.81c.09,1.86,1.79,3.3,3.79,3.21,1.87-.08,3.37-1.47,3.46-3.21,0-1.86-1.62-3.37-3.62-3.37s-3.62,1.51-3.62,3.37h0M159.69,47.87c-2,0-3.62,1.51-3.62,3.37s1.63,3.37,3.63,3.36,3.62-1.51,3.62-3.38-1.63-3.37-3.63-3.36h0M165.28,64.18c-2,0-3.62,1.52-3.61,3.37s1.63,3.36,3.63,3.36,3.62-1.52,3.61-3.37c0-1.86-1.63-3.36-3.63-3.36M167.27,51.24c-.06,1.86,1.51,3.42,3.51,3.47s3.68-1.4,3.74-3.27v-.22c-.07-1.86-1.75-3.32-3.75-3.26-1.91.06-3.44,1.49-3.5,3.27M170.89,60.81c.06,1.86,1.74,3.32,3.74,3.26,1.91-.06,3.45-1.48,3.51-3.26,0-1.86-1.62-3.37-3.63-3.37s-3.63,1.51-3.63,3.37M202.3,80.8c8,0,14.49-6.02,14.5-13.46,0-7.44-6.48-13.47-14.48-13.47h0c-8,0-14.49,6.04-14.48,13.47,0,7.43,6.49,13.46,14.48,13.46M202.3,29.05c0-7.44-6.49-13.47-14.49-13.47s-14.49,6.03-14.49,13.47,6.49,13.47,14.49,13.47,14.49-6.03,14.49-13.47M165.4,107.74c8.01,0,14.49-6.04,14.49-13.48s-6.49-13.47-14.5-13.47-14.49,6.04-14.49,13.48,6.49,13.47,14.5,13.47M128.5,53.86c-8,0-14.49,6.03-14.5,13.47,0,7.44,6.49,13.47,14.5,13.47s14.5-6.03,14.5-13.47-6.49-13.47-14.5-13.47M141.07,113.02c-16.5-6.43-29.3-19.05-35.26-34.73-3.59,15.5-14.95,28.29-30.1,34.73h65.36ZM84.74,86.46c6.77,0,12.26-5.1,12.26-11.4s-5.49-11.4-12.26-11.4-12.26,5.1-12.26,11.4,5.49,11.4,12.26,11.4M84.74,42.66c0-6.29-5.48-11.39-12.25-11.4h-.01c-6.77,0-12.26,5.1-12.26,11.39s5.49,11.39,12.26,11.39,12.26-5.08,12.27-11.37v-.02M65.78,97.85c0-6.29-5.49-11.39-12.26-11.39h0c-6.77,0-12.26,5.11-12.26,11.4s5.49,11.39,12.27,11.39,12.26-5.11,12.26-11.4"/>
    </g>
  </g>
</svg>