<?xml version="1.0" encoding="UTF-8"?>
<svg id="Calque_2" data-name="Calque 2" xmlns="http://www.w3.org/2000/svg" xmlns:xlink="http://www.w3.org/1999/xlink" viewBox="0 0 303.31 306.12">
  <defs>
    <style>
      .cls-1 {
        fill: url(#Dégradé_sans_nom_351);
      }

      .cls-2 {
        fill: url(#Dégradé_sans_nom_235-2);
      }

      .cls-3 {
        fill: url(#Dégradé_sans_nom_235);
      }

      .cls-4 {
        fill: url(#Nouvelle_nuance_de_dégradé_1);
      }
    </style>
    <linearGradient id="Dégradé_sans_nom_351" data-name="Dégradé sans nom 351" x1="68.59" y1="7.34" x2="252.75" y2="287.91" gradientTransform="translate(205.76 -5.11) rotate(68.52) scale(.88 .89) skewX(-.87)" gradientUnits="userSpaceOnUse">
      <stop offset="0" stop-color="#fff"/>
      <stop offset=".33" stop-color="#fffcfe"/>
      <stop offset=".49" stop-color="#fff5fa"/>
      <stop offset=".62" stop-color="#ffe7f5"/>
      <stop offset=".74" stop-color="#ffd4ed"/>
      <stop offset=".83" stop-color="#ffbce3"/>
      <stop offset=".92" stop-color="#ff9ed7"/>
      <stop offset="1" stop-color="#ff7fca"/>
    </linearGradient>
    <linearGradient id="Dégradé_sans_nom_235" data-name="Dégradé sans nom 235" x1="89.17" y1="8.39" x2="212.2" y2="293.83" gradientUnits="userSpaceOnUse">
      <stop offset=".1" stop-color="#000"/>
      <stop offset=".22" stop-color="#040103"/>
      <stop offset=".36" stop-color="#11040c"/>
      <stop offset=".49" stop-color="#26091c"/>
      <stop offset=".63" stop-color="#413"/>
      <stop offset=".77" stop-color="#6a1b50"/>
      <stop offset=".91" stop-color="#992773"/>
    </linearGradient>
    <linearGradient id="Nouvelle_nuance_de_dégradé_1" data-name="Nouvelle nuance de dégradé 1" x1="37.5" y1="146.07" x2="244.9" y2="146.07" gradientTransform="translate(-1.88 1.77) rotate(-.74)" gradientUnits="userSpaceOnUse">
      <stop offset="0" stop-color="#992773"/>
      <stop offset="1" stop-color="#000"/>
    </linearGradient>
    <linearGradient id="Dégradé_sans_nom_235-2" data-name="Dégradé sans nom 235" x1="134.61" y1="203.24" x2="147.28" y2="152.22" xlink:href="#Dégradé_sans_nom_235"/>
  </defs>
  <g id="Calque_2-2" data-name="Calque 2">
    <g>
      <g>
        <ellipse class="cls-1" cx="149.21" cy="151.74" rx="152.03" ry="148.7" transform="translate(-46 236.5) rotate(-68.95)"/>
        <path class="cls-3" d="M203.86,9.73c18.4,7.05,35.49,17.52,50.19,30.88,1.82,1.69,3.59,3.43,5.39,5.15,1.73,1.79,3.42,3.61,5.13,5.42l4.9,5.66,4.61,5.91c5.96,8.04,11.14,16.7,15.43,25.82,4.22,9.15,7.65,18.71,9.94,28.59,2.33,9.86,3.59,19.99,3.83,30.15.08,5.08-.07,10.16-.47,15.23l-.38,3.79c-.12,1.26-.24,2.53-.45,3.78l-.56,3.77c-.19,1.26-.35,2.52-.63,3.76-1.83,9.99-4.61,19.8-8.27,29.26-7.31,18.93-18.4,36.39-32.33,51.09-13.89,14.75-30.73,26.64-49.14,34.88-18.39,8.29-38.42,12.82-58.49,13.23-20.07.45-40.14-3.28-58.62-10.75-18.48-7.46-35.43-18.59-49.41-32.64-14.05-13.98-25.21-30.77-32.71-49.02C4.26,195.46.18,175.81,0,156.11c-.09-9.85.74-19.7,2.48-29.38,1.75-9.69,4.42-19.2,7.95-28.39,7.07-18.37,17.62-35.41,31.03-49.83,13.39-14.44,29.59-26.25,47.45-34.55C106.76,5.63,126.26.84,145.96.11c19.69-.77,39.51,2.55,57.91,9.62ZM203.76,9.98C185.41,2.91,165.62-.43,145.96.31c-19.66.7-39.15,5.47-56.99,13.76-17.85,8.28-34.06,20.06-47.46,34.48-13.42,14.4-23.98,31.42-31.08,49.78C3.41,116.72-.24,136.43.17,156.11c.36,19.66,4.51,39.26,12.33,57.28,7.84,18,19.2,34.45,33.4,47.92,14.2,13.45,31.11,23.93,49.38,30.61,18.27,6.68,37.81,9.6,57.09,8.54,19.29-1.02,38.26-6.06,55.55-14.38,17.3-8.34,32.88-20.06,45.77-34.15,12.9-14.12,22.92-30.72,29.78-48.53,3.38-8.92,5.94-18.15,7.59-27.53.25-1.16.4-2.35.57-3.53l.51-3.54c.19-1.18.29-2.36.4-3.55l.33-3.56c.39-4.74.58-9.5.53-14.27-.04-9.52-.96-19.05-2.68-28.45-1.76-9.39-4.23-18.69-7.7-27.67-3.39-9-7.66-17.71-12.78-25.95l-3.99-6.09-4.31-5.89c-1.55-1.88-3.07-3.78-4.64-5.64-1.64-1.8-3.25-3.63-4.93-5.41-13.49-14.14-30.25-25.28-48.6-32.37Z"/>
      </g>
      <path class="cls-4" d="M142.53,249.69c-58.53.76-106.52-47.38-105-106.44,1.39-53.84,44.44-98.02,98.22-100.8,59-3.05,108.36,43.68,109.12,102.21.25,19.4-4.91,38.43-14.92,54.93.44,5.48,8.08,23.67,15.38,38.1,1.44,2.8.9,6.21-1.3,8.46s-5.59,2.89-8.42,1.59c-14.83-6.92-33.51-13.94-39-14.09-16.2,10.24-34.92,15.79-54.09,16.03M140.04,57.13c-49.03.63-88.36,40.99-87.72,90.02.63,49.03,40.99,88.36,90.02,87.72,16.74-.21,33.09-5.15,47.15-14.24,2.35-1.59,7.42-4.76,34,5.78-11.45-26.07-8.33-31.15-6.88-33.54,8.92-14.41,13.6-30.99,13.38-48.02-.63-49.03-40.99-88.36-90.02-87.72h.07ZM170.42,114.83c-8.39.11-15.11,7.26-14.59,15.72.46,7.52,6.73,13.63,14.26,13.89,8.48.3,15.45-6.61,15.34-15-.03-8.07-6.63-14.65-14.71-14.62h-.3ZM106.9,115.65c-8.39.11-15.11,7.26-14.59,15.72.46,7.52,6.73,13.63,14.26,13.89,8.48.3,15.45-6.61,15.34-15-.03-8.07-6.63-14.65-14.71-14.62h-.3Z"/>
      <path class="cls-2" d="M193.84,167.46c-.16,1.41-.46,2.75-.77,4.12-.38,1.31-.8,2.63-1.28,3.93-.49,1.29-1.1,2.51-1.68,3.78-.63,1.23-1.35,2.39-2.05,3.61-2.96,4.69-6.81,8.84-11.22,12.36l-3.41,2.51c-1.19.76-2.4,1.49-3.62,2.21-1.24.67-2.48,1.38-3.77,1.98-1.29.58-2.59,1.17-3.92,1.68-5.31,2.05-10.92,3.34-16.59,3.84-5.67.5-11.39.22-16.94-.83-2.78-.51-5.51-1.24-8.16-2.17-2.66-.87-5.24-2-7.71-3.27-4.94-2.57-9.49-5.81-13.34-9.72-.93-1.03-1.9-1.96-2.75-3.05-.84-1.1-1.71-2.12-2.46-3.28-.76-1.14-1.47-2.31-2.14-3.51-.62-1.25-1.22-2.48-1.71-3.81l.98-1.25c3.79,2.8,7.83,5.26,12.05,7.32,4.19,2.1,8.57,3.82,13.07,5.1,8.98,2.58,18.42,3.59,27.7,2.69,9.29-.77,18.41-3.43,26.7-7.71,4.15-2.13,8.08-4.71,11.72-7.66,3.67-2.91,7.04-6.22,10.05-9.84l1.25.98Z"/>
    </g>
  </g>
</svg>