<?xml version="1.0" encoding="UTF-8"?>
<svg id="Calque_2" data-name="Calque 2" xmlns="http://www.w3.org/2000/svg" xmlns:xlink="http://www.w3.org/1999/xlink" viewBox="0 0 303.31 306.12">
  <defs>
    <style>
      .cls-1 {
        fill: url(#Dégradé_sans_nom_351);
      }

      .cls-2 {
        fill: #fff;
      }

      .cls-3 {
        fill: url(#Dégradé_sans_nom_235);
      }

      .cls-4 {
        fill: url(#Dégradé_sans_nom_375);
        fill-rule: evenodd;
      }
    </style>
    <linearGradient id="Dégradé_sans_nom_351" data-name="Dégradé sans nom 351" x1="203.62" y1="7.5" x2="387.78" y2="288.07" gradientTransform="translate(162.62 -115.15) rotate(68.52) scale(.88 .89) skewX(-.87)" gradientUnits="userSpaceOnUse">
      <stop offset="0" stop-color="#fff"/>
      <stop offset=".33" stop-color="#fffcfe"/>
      <stop offset=".49" stop-color="#fff5fa"/>
      <stop offset=".62" stop-color="#ffe7f5"/>
      <stop offset=".74" stop-color="#ffd4ed"/>
      <stop offset=".83" stop-color="#ffbce3"/>
      <stop offset=".92" stop-color="#ff9ed7"/>
      <stop offset="1" stop-color="#ff7fca"/>
    </linearGradient>
    <linearGradient id="Dégradé_sans_nom_235" data-name="Dégradé sans nom 235" x1="89.17" y1="8.39" x2="212.2" y2="293.83" gradientUnits="userSpaceOnUse">
      <stop offset=".1" stop-color="#000"/>
      <stop offset=".22" stop-color="#040103"/>
      <stop offset=".36" stop-color="#11040c"/>
      <stop offset=".49" stop-color="#26091c"/>
      <stop offset=".63" stop-color="#413"/>
      <stop offset=".77" stop-color="#6a1b50"/>
      <stop offset=".91" stop-color="#992773"/>
    </linearGradient>
    <linearGradient id="Dégradé_sans_nom_375" data-name="Dégradé sans nom 375" x1="52.8" y1="152.42" x2="253.8" y2="152.42" gradientUnits="userSpaceOnUse">
      <stop offset=".1" stop-color="#000"/>
      <stop offset=".22" stop-color="#040103"/>
      <stop offset=".36" stop-color="#11040c"/>
      <stop offset=".49" stop-color="#26091c"/>
      <stop offset=".63" stop-color="#413"/>
      <stop offset=".77" stop-color="#6a1b50"/>
      <stop offset=".91" stop-color="#992773"/>
    </linearGradient>
  </defs>
  <g id="Calque_2-2" data-name="Calque 2">
    <g>
      <g>
        <ellipse class="cls-1" cx="149.21" cy="151.74" rx="152.03" ry="148.7" transform="translate(-46 236.5) rotate(-68.95)"/>
        <path class="cls-3" d="M203.86,9.73c18.4,7.05,35.49,17.52,50.19,30.88,1.82,1.69,3.59,3.43,5.39,5.15,1.73,1.79,3.42,3.61,5.13,5.42l4.9,5.66,4.61,5.91c5.96,8.04,11.14,16.7,15.43,25.82,4.22,9.15,7.65,18.71,9.94,28.59,2.33,9.86,3.59,19.99,3.83,30.15.08,5.08-.06,10.16-.47,15.23l-.38,3.79c-.12,1.26-.24,2.53-.45,3.78l-.56,3.77c-.19,1.26-.35,2.52-.63,3.76-1.83,9.99-4.61,19.8-8.27,29.26-7.31,18.93-18.4,36.39-32.33,51.09-13.89,14.75-30.73,26.64-49.14,34.88-18.39,8.29-38.42,12.82-58.49,13.23-20.07.45-40.14-3.28-58.62-10.75-18.48-7.46-35.43-18.59-49.41-32.64-14.05-13.98-25.21-30.77-32.71-49.02C4.26,195.46.18,175.81,0,156.11c-.09-9.85.74-19.7,2.48-29.38,1.75-9.69,4.42-19.2,7.95-28.39,7.07-18.37,17.62-35.41,31.03-49.83,13.39-14.44,29.59-26.25,47.45-34.55C106.76,5.63,126.26.84,145.96.11c19.69-.77,39.51,2.55,57.91,9.62ZM203.76,9.98C185.41,2.91,165.62-.43,145.96.31c-19.66.7-39.15,5.47-56.99,13.76-17.85,8.28-34.06,20.06-47.46,34.48-13.42,14.4-23.98,31.42-31.08,49.78C3.41,116.72-.24,136.43.17,156.11c.36,19.66,4.51,39.26,12.33,57.28,7.84,18,19.2,34.45,33.4,47.92,14.2,13.45,31.11,23.93,49.38,30.61,18.27,6.68,37.81,9.6,57.09,8.54,19.29-1.02,38.26-6.06,55.55-14.38,17.3-8.34,32.88-20.06,45.77-34.15,12.9-14.12,22.92-30.72,29.78-48.53,3.38-8.92,5.94-18.15,7.59-27.53.25-1.16.4-2.35.57-3.53l.51-3.54c.19-1.18.29-2.36.4-3.55l.33-3.56c.39-4.74.58-9.5.53-14.27-.04-9.52-.96-19.05-2.68-28.45-1.76-9.39-4.23-18.69-7.7-27.67-3.39-9-7.66-17.71-12.78-25.95l-3.99-6.09-4.31-5.89c-1.55-1.88-3.07-3.78-4.64-5.64-1.64-1.8-3.25-3.63-4.93-5.41-13.49-14.14-30.25-25.28-48.6-32.37Z"/>
      </g>
      <g>
        <path class="cls-4" d="M180.71,51.92H52.8v127.91h64.1c-2.52,37.76,26.05,70.42,63.81,72.94,37.76,2.52,70.42-26.05,72.94-63.81,2.52-37.76-26.05-70.42-63.81-72.94-3.04-.2-6.09-.2-9.12,0V51.92ZM116.9,179.83c2.29-34.25,29.56-61.53,63.81-63.81v63.81h-63.81Z"/>
        <path class="cls-2" d="M45.38,154.89c13.14-6.97,24.59-16.89,33.49-28.79,4.48-5.98,8.18-12.44,11.26-19.24s6.05-14.54,11.4-20.27c9.41-10.05,24.46-12.22,37.47-9.79,15.83,2.95,29.49,12.49,42.6,21.3,6.32,4.24,12.62,8.46,19.83,11.05,6.33,2.27,13.52,3.28,19.83.42,1.54-.7,2.92-1.65,4.21-2.73,1.48-1.24-.65-3.35-2.12-2.12-5.37,4.48-12.58,4.17-18.93,2.26-7.19-2.16-13.48-6.23-19.66-10.37-13.2-8.83-26.72-18.5-42.44-22.17-12.99-3.04-28.01-1.92-38.89,6.43-6,4.6-9.78,11.06-12.9,17.82s-6.16,13.8-10.29,20.21c-8.01,12.43-18.89,23.02-31.55,30.67-1.58.96-3.19,1.86-4.82,2.73s-.19,3.5,1.51,2.59h0Z"/>
      </g>
    </g>
  </g>
</svg>