<?xml version="1.0" encoding="UTF-8"?>
<svg id="Calque_2" data-name="Calque 2" xmlns="http://www.w3.org/2000/svg" xmlns:xlink="http://www.w3.org/1999/xlink" viewBox="0 0 303.31 306.14">
  <defs>
    <style>
      .cls-1 {
        fill: url(#Dégradé_sans_nom_2);
      }

      .cls-2 {
        fill: url(#Dégradé_sans_nom);
      }

      .cls-3 {
        fill: url(#Dégradé_sans_nom_5);
      }
    </style>
    <linearGradient id="Dégradé_sans_nom" data-name="Dégradé sans nom" x1="-70.3" y1="159.28" x2="113.86" y2="-121.29" gradientTransform="translate(111.56 160.15) rotate(68.52) scale(.88 -.89) skewX(.87)" gradientUnits="userSpaceOnUse">
      <stop offset="0" stop-color="#fff"/>
      <stop offset=".33" stop-color="#fffcfe"/>
      <stop offset=".49" stop-color="#fff5fa"/>
      <stop offset=".62" stop-color="#ffe7f5"/>
      <stop offset=".74" stop-color="#ffd4ed"/>
      <stop offset=".83" stop-color="#ffbce3"/>
      <stop offset=".92" stop-color="#ff9ed7"/>
      <stop offset="1" stop-color="#ff7fca"/>
    </linearGradient>
    <linearGradient id="Dégradé_sans_nom_2" data-name="Dégradé sans nom 2" x1="89.17" y1="299.6" x2="212.2" y2="14.16" gradientTransform="translate(0 308) scale(1 -1)" gradientUnits="userSpaceOnUse">
      <stop offset=".1" stop-color="#000"/>
      <stop offset=".22" stop-color="#040103"/>
      <stop offset=".36" stop-color="#11040c"/>
      <stop offset=".49" stop-color="#26091c"/>
      <stop offset=".63" stop-color="#413"/>
      <stop offset=".77" stop-color="#6a1b50"/>
      <stop offset=".91" stop-color="#992773"/>
    </linearGradient>
    <linearGradient id="Dégradé_sans_nom_5" data-name="Dégradé sans nom 5" x1="65.93" y1="160.62" x2="232.5" y2="160.62" gradientUnits="userSpaceOnUse">
      <stop offset="0" stop-color="#992773"/>
      <stop offset="1" stop-color="#000"/>
    </linearGradient>
  </defs>
  <g id="Calque_2-2" data-name="Calque 2">
    <g>
      <ellipse class="cls-2" cx="149.21" cy="151.75" rx="152.03" ry="148.7" transform="translate(-46 236.5) rotate(-68.95)"/>
      <path class="cls-1" d="M203.87,9.73c18.4,7.05,35.49,17.52,50.19,30.88,1.82,1.69,3.59,3.43,5.39,5.15,1.73,1.79,3.42,3.61,5.13,5.42l4.9,5.66,4.61,5.91c5.96,8.04,11.14,16.7,15.43,25.82,4.22,9.15,7.65,18.71,9.94,28.59,2.33,9.86,3.59,19.99,3.83,30.15.08,5.08-.06,10.16-.47,15.23l-.38,3.79c-.12,1.26-.24,2.53-.45,3.78l-.56,3.77c-.19,1.26-.35,2.52-.63,3.76-1.83,9.99-4.61,19.8-8.27,29.26-7.31,18.93-18.4,36.39-32.33,51.09-13.89,14.75-30.73,26.64-49.14,34.88-18.39,8.29-38.42,12.82-58.49,13.23-20.07.45-40.14-3.28-58.62-10.75-18.48-7.46-35.43-18.59-49.41-32.64-14.05-13.98-25.21-30.77-32.71-49.02C4.27,195.46.19,175.81,0,156.11c-.09-9.85.74-19.7,2.48-29.38,1.75-9.69,4.42-19.2,7.95-28.39,7.07-18.37,17.62-35.41,31.03-49.83,13.39-14.44,29.59-26.25,47.45-34.55C106.77,5.63,126.27.84,145.97.11c19.69-.77,39.51,2.55,57.91,9.62h-.01ZM203.77,9.98C185.42,2.91,165.63-.43,145.97.31c-19.66.7-39.15,5.47-56.99,13.76-17.85,8.28-34.06,20.06-47.46,34.48-13.42,14.4-23.98,31.42-31.08,49.78C3.42,116.72-.23,136.43.18,156.11c.36,19.66,4.51,39.26,12.33,57.28,7.84,18,19.2,34.45,33.4,47.92,14.2,13.45,31.11,23.93,49.38,30.61,18.27,6.68,37.81,9.6,57.09,8.54,19.29-1.02,38.26-6.06,55.55-14.38,17.3-8.34,32.88-20.06,45.77-34.15,12.9-14.12,22.92-30.72,29.78-48.53,3.38-8.92,5.94-18.15,7.59-27.53.25-1.16.4-2.35.57-3.53l.51-3.54c.19-1.18.29-2.36.4-3.55l.33-3.56c.39-4.74.58-9.5.53-14.27-.04-9.52-.96-19.05-2.68-28.45-1.76-9.39-4.23-18.69-7.7-27.67-3.39-9-7.66-17.71-12.78-25.95l-3.99-6.09-4.31-5.89c-1.55-1.88-3.07-3.78-4.64-5.64-1.64-1.8-3.25-3.63-4.93-5.41-13.49-14.14-30.25-25.28-48.6-32.37v.03Z"/>
    </g>
    <path class="cls-3" d="M188.37,47.05c25.47,0,44.12,20.74,44.12,49.21,0,26.42-15.08,50.86-39.7,73.15-2.52,2.28-5.09,4.49-7.71,6.63l16.9,84.55c1.23,6.15-2.76,12.13-8.91,13.36-2.03.41-4.14.25-6.09-.46l-36.48-13.26c-.83-.3-1.74-.3-2.57,0l-36.48,13.26c-5.9,2.14-12.41-.91-14.55-6.81-.71-1.95-.87-4.06-.46-6.09l16.88-84.55c-2.63-2.15-5.2-4.36-7.72-6.63-24.58-22.29-39.67-46.73-39.67-73.15,0-28.47,18.66-49.21,44.12-49.21,14.58,0,27.91,6.1,37.46,16.25l1.7,1.89,1.7-1.89c9.03-9.62,21.4-15.41,34.57-16.17l2.89-.08ZM133.54,190.83l-10.87,54.42,17.49-6.36c4.99-1.81,10.42-2.08,15.57-.77l2.54.77,17.47,6.36-10.87-54.39c-3.03,1.97-5.58,3.55-7.65,4.75l-2.56,1.47c-3.4,1.86-7.51,1.86-10.9,0-2.65-1.48-5.25-3.03-7.8-4.66l-2.42-1.59ZM188.37,69.76c-13.07,0-24.39,8.78-28.26,22.09-3.16,10.92-18.64,10.92-21.8,0-3.86-13.31-15.19-22.09-28.26-22.09-12.36,0-21.41,10.07-21.41,26.5,0,18.63,11.9,37.92,32.22,56.31,7.42,6.71,15.41,12.81,23.41,18.14l4.92,3.18,1.15-.71,3.8-2.47c8.25-5.45,16.07-11.51,23.41-18.14,20.32-18.4,32.22-37.7,32.22-56.31,0-16.43-9.06-26.5-21.41-26.5"/>
  </g>
</svg>