<?xml version="1.0" encoding="UTF-8"?>
<svg id="Calque_2" data-name="Calque 2" xmlns="http://www.w3.org/2000/svg" xmlns:xlink="http://www.w3.org/1999/xlink" viewBox="0 0 303.31 306.12">
  <defs>
    <style>
      .cls-1 {
        fill: url(#Dégradé_sans_nom_351);
      }

      .cls-2 {
        fill: url(#Dégradé_sans_nom_235);
      }

      .cls-3 {
        stroke: url(#Dégradé_sans_nom_387-2);
        stroke-width: 10px;
      }

      .cls-3, .cls-4 {
        fill: none;
        stroke-linecap: round;
        stroke-linejoin: round;
      }

      .cls-4 {
        stroke: url(#Dégradé_sans_nom_387);
        stroke-width: 6px;
      }
    </style>
    <linearGradient id="Dégradé_sans_nom_351" data-name="Dégradé sans nom 351" x1="-35.06" y1="1.21" x2="149.1" y2="281.78" gradientTransform="translate(233.88 81.24) rotate(68.52) scale(.88 .89) skewX(-.87)" gradientUnits="userSpaceOnUse">
      <stop offset="0" stop-color="#fff"/>
      <stop offset=".33" stop-color="#fffcfe"/>
      <stop offset=".49" stop-color="#fff5fa"/>
      <stop offset=".62" stop-color="#ffe7f5"/>
      <stop offset=".74" stop-color="#ffd4ed"/>
      <stop offset=".83" stop-color="#ffbce3"/>
      <stop offset=".92" stop-color="#ff9ed7"/>
      <stop offset="1" stop-color="#ff7fca"/>
    </linearGradient>
    <linearGradient id="Dégradé_sans_nom_235" data-name="Dégradé sans nom 235" x1="89.17" y1="8.39" x2="212.2" y2="293.83" gradientUnits="userSpaceOnUse">
      <stop offset=".1" stop-color="#000"/>
      <stop offset=".22" stop-color="#040103"/>
      <stop offset=".36" stop-color="#11040c"/>
      <stop offset=".49" stop-color="#26091c"/>
      <stop offset=".63" stop-color="#413"/>
      <stop offset=".77" stop-color="#6a1b50"/>
      <stop offset=".91" stop-color="#992773"/>
    </linearGradient>
    <linearGradient id="Dégradé_sans_nom_387" data-name="Dégradé sans nom 387" x1="78.81" y1="129.37" x2="264.55" y2="129.37" gradientUnits="userSpaceOnUse">
      <stop offset="0" stop-color="#992773"/>
      <stop offset="1" stop-color="#000"/>
    </linearGradient>
    <linearGradient id="Dégradé_sans_nom_387-2" data-name="Dégradé sans nom 387" x1="43.11" y1="180.53" x2="187.91" y2="180.53" xlink:href="#Dégradé_sans_nom_387"/>
  </defs>
  <g id="Calque_2-2" data-name="Calque 2">
    <g>
      <g>
        <ellipse class="cls-1" cx="149.21" cy="151.74" rx="152.03" ry="148.7" transform="translate(-46 236.5) rotate(-68.95)"/>
        <path class="cls-2" d="M203.86,9.73c18.4,7.05,35.49,17.52,50.19,30.88,1.82,1.69,3.59,3.43,5.39,5.15,1.73,1.79,3.42,3.61,5.13,5.42l4.9,5.66,4.61,5.91c5.96,8.04,11.14,16.7,15.43,25.82,4.22,9.15,7.65,18.71,9.94,28.59,2.33,9.86,3.59,19.99,3.83,30.15.08,5.08-.06,10.16-.47,15.23l-.38,3.79c-.12,1.26-.24,2.53-.45,3.78l-.56,3.77c-.19,1.26-.35,2.52-.63,3.76-1.83,9.99-4.61,19.8-8.27,29.26-7.31,18.93-18.4,36.39-32.33,51.09-13.89,14.75-30.73,26.64-49.14,34.88-18.39,8.29-38.42,12.82-58.49,13.23-20.07.45-40.14-3.28-58.62-10.75-18.48-7.46-35.43-18.59-49.41-32.64-14.05-13.98-25.21-30.77-32.71-49.02C4.26,195.46.18,175.81,0,156.11c-.09-9.85.74-19.7,2.48-29.38,1.75-9.69,4.42-19.2,7.95-28.39,7.07-18.37,17.62-35.41,31.03-49.83,13.39-14.44,29.59-26.25,47.45-34.55C106.76,5.63,126.26.84,145.96.11c19.69-.77,39.51,2.55,57.91,9.62ZM203.76,9.98C185.41,2.91,165.62-.43,145.96.31c-19.66.7-39.15,5.47-56.99,13.76-17.85,8.28-34.06,20.06-47.46,34.48-13.42,14.4-23.98,31.42-31.08,49.78C3.41,116.72-.24,136.43.17,156.11c.36,19.66,4.51,39.26,12.33,57.28,7.84,18,19.2,34.45,33.4,47.92,14.2,13.45,31.11,23.93,49.38,30.61,18.27,6.68,37.81,9.6,57.09,8.54,19.29-1.02,38.26-6.06,55.55-14.38,17.3-8.34,32.88-20.06,45.77-34.15,12.9-14.12,22.92-30.72,29.78-48.53,3.38-8.92,5.94-18.15,7.59-27.53.25-1.16.4-2.35.57-3.53l.51-3.54c.19-1.18.29-2.36.4-3.55l.33-3.56c.39-4.74.58-9.5.53-14.27-.04-9.52-.96-19.05-2.68-28.45-1.75-9.39-4.23-18.69-7.7-27.67-3.39-9-7.66-17.71-12.78-25.95l-3.99-6.09-4.31-5.89c-1.55-1.88-3.07-3.78-4.64-5.64-1.64-1.8-3.26-3.63-4.93-5.41-13.49-14.14-30.25-25.28-48.6-32.37Z"/>
      </g>
      <g>
        <path class="cls-4" d="M182.91,200.99h22.47c26.48,0,39.71,0,47.95-7.49,8.23-7.49,8.22-19.55,8.22-43.67v-40.93c0-24.12,0-36.18-8.22-43.67-8.23-7.49-21.47-7.49-47.95-7.49h-78.64v51.16M81.81,160.06h39.32M81.81,200.99h67.4M126.74,57.74l56.17,51.16"/>
        <path class="cls-3" d="M182.91,211.22v-102.32h-78.64c-26.48,0-39.71,0-47.95,7.49-8.23,7.49-8.22,19.54-8.22,43.67v40.93c0,24.12,0,36.17,8.22,43.67,8.22,7.5,21.47,7.49,47.95,7.49h33.7c21.19,0,31.77,0,38.35-6,6.58-6,6.58-15.64,6.58-34.93"/>
      </g>
    </g>
  </g>
</svg>