<?xml version="1.0" encoding="UTF-8"?>
<svg id="Calque_2" data-name="Calque 2" xmlns="http://www.w3.org/2000/svg" xmlns:xlink="http://www.w3.org/1999/xlink" viewBox="0 0 303.31 306.12">
  <defs>
    <style>
      .cls-1 {
        fill: url(#Dégradé_sans_nom_351);
      }

      .cls-2 {
        fill: url(#Dégradé_sans_nom_235);
      }

      .cls-3 {
        fill: url(#Nouvelle_nuance_de_dégradé_1);
      }
    </style>
    <linearGradient id="Dégradé_sans_nom_351" data-name="Dégradé sans nom 351" x1="-29.85" y1="50.17" x2="154.31" y2="330.74" gradientTransform="translate(272.99 61.66) rotate(68.52) scale(.88 .89) skewX(-.87)" gradientUnits="userSpaceOnUse">
      <stop offset="0" stop-color="#fff"/>
      <stop offset=".33" stop-color="#fffcfe"/>
      <stop offset=".49" stop-color="#fff5fa"/>
      <stop offset=".62" stop-color="#ffe7f5"/>
      <stop offset=".74" stop-color="#ffd4ed"/>
      <stop offset=".83" stop-color="#ffbce3"/>
      <stop offset=".92" stop-color="#ff9ed7"/>
      <stop offset="1" stop-color="#ff7fca"/>
    </linearGradient>
    <linearGradient id="Dégradé_sans_nom_235" data-name="Dégradé sans nom 235" x1="89.17" y1="8.39" x2="212.2" y2="293.83" gradientUnits="userSpaceOnUse">
      <stop offset=".1" stop-color="#000"/>
      <stop offset=".22" stop-color="#040103"/>
      <stop offset=".36" stop-color="#11040c"/>
      <stop offset=".49" stop-color="#26091c"/>
      <stop offset=".63" stop-color="#413"/>
      <stop offset=".77" stop-color="#6a1b50"/>
      <stop offset=".91" stop-color="#992773"/>
    </linearGradient>
    <linearGradient id="Nouvelle_nuance_de_dégradé_1" data-name="Nouvelle nuance de dégradé 1" x1="34.89" y1="148.16" x2="263.53" y2="148.16" gradientUnits="userSpaceOnUse">
      <stop offset="0" stop-color="#992773"/>
      <stop offset="1" stop-color="#000"/>
    </linearGradient>
  </defs>
  <g id="Calque_2-2" data-name="Calque 2">
    <g>
      <ellipse class="cls-1" cx="149.21" cy="151.74" rx="152.03" ry="148.7" transform="translate(-46 236.5) rotate(-68.95)"/>
      <path class="cls-2" d="M203.86,9.73c18.4,7.05,35.49,17.52,50.19,30.88,1.82,1.69,3.59,3.43,5.39,5.15,1.73,1.79,3.42,3.61,5.13,5.42l4.9,5.66,4.61,5.91c5.96,8.04,11.14,16.7,15.43,25.82,4.22,9.15,7.65,18.71,9.94,28.59,2.33,9.86,3.59,19.99,3.83,30.15.08,5.08-.06,10.16-.47,15.23l-.38,3.79c-.12,1.26-.24,2.53-.45,3.78l-.56,3.77c-.19,1.26-.35,2.52-.63,3.76-1.83,9.99-4.61,19.8-8.27,29.26-7.31,18.93-18.4,36.39-32.33,51.09-13.89,14.75-30.73,26.64-49.14,34.88-18.39,8.29-38.42,12.82-58.49,13.23-20.07.45-40.14-3.28-58.62-10.75-18.48-7.46-35.43-18.59-49.41-32.64-14.05-13.98-25.21-30.77-32.71-49.02C4.26,195.46.18,175.81,0,156.11c-.09-9.85.74-19.7,2.48-29.38,1.75-9.69,4.42-19.2,7.95-28.39,7.07-18.37,17.62-35.41,31.03-49.83,13.39-14.44,29.59-26.25,47.45-34.55C106.76,5.63,126.26.84,145.96.11c19.69-.77,39.51,2.55,57.91,9.62ZM203.76,9.98C185.41,2.91,165.62-.43,145.96.31c-19.66.7-39.15,5.47-56.99,13.76-17.85,8.28-34.06,20.06-47.46,34.48-13.42,14.4-23.98,31.42-31.08,49.78C3.41,116.72-.24,136.43.17,156.11c.36,19.66,4.51,39.26,12.33,57.28,7.84,18,19.2,34.45,33.4,47.92,14.2,13.45,31.11,23.93,49.38,30.61,18.27,6.68,37.81,9.6,57.09,8.54,19.29-1.02,38.26-6.06,55.55-14.38,17.3-8.34,32.88-20.06,45.77-34.15,12.9-14.12,22.92-30.72,29.78-48.53,3.38-8.92,5.94-18.15,7.59-27.53.25-1.16.4-2.35.57-3.53l.51-3.54c.19-1.18.29-2.36.4-3.55l.33-3.56c.39-4.74.58-9.5.53-14.27-.04-9.52-.96-19.05-2.68-28.45-1.76-9.39-4.23-18.69-7.7-27.67-3.39-9-7.66-17.71-12.78-25.95l-3.99-6.09-4.31-5.89c-1.55-1.88-3.07-3.78-4.64-5.64-1.64-1.8-3.25-3.63-4.93-5.41-13.49-14.14-30.25-25.28-48.6-32.37Z"/>
    </g>
    <path class="cls-3" d="M34.89,109.72c0-27.47,23.96-49.73,53.51-49.73,22.44,0,41.62,12.85,49.57,31.05,4.96-27.86,30.93-49.13,62.32-49.13,34.92,0,63.24,26.32,63.24,58.77s-26.53,56.99-59.89,58.62c.95,1.4,1.52,3.01,1.52,4.68v29.38l34.05-15.82v67.82l-34.38-15.98c-1.07,3.81-4.88,6.93-9.41,6.93h-29.19v18.09h-43.78v-18.09h-24.32c-5.33,0-9.73-4.32-9.73-9.04v-40.69l-24.32,4.52v-31.65l24.32,4.52c0-1.64.56-3.21,1.47-4.59-.49.01-.97.07-1.47.07-29.55,0-53.51-22.27-53.51-49.73M44.92,116.97c.17,6.3,5.8,11.27,12.57,11.12,6.54-.15,11.8-5.04,11.96-11.12-.17-6.3-5.8-11.27-12.57-11.12-6.54.15-11.8,5.04-11.96,11.12M69.45,73.18c-6.77,0-12.26,5.1-12.26,11.39s5.49,11.39,12.26,11.39,12.26-5.1,12.26-11.39c0-6.29-5.48-11.39-12.25-11.4h-.01M77.44,111.45c0,1.57,1.37,2.85,3.07,2.85s3.07-1.28,3.07-2.85-1.37-2.85-3.07-2.85-3.07,1.28-3.07,2.85M83.57,100.5c-1.69,0-3.07,1.28-3.07,2.85s1.38,2.85,3.07,2.85h0c1.69,0,3.07-1.28,3.07-2.85s-1.38-2.85-3.07-2.85M88.31,114.3c-1.7,0-3.07,1.28-3.07,2.85,0,1.58,1.38,2.85,3.07,2.85,1.7,0,3.07-1.28,3.07-2.85,0,0,0,0,0,0,0-1.57-1.38-2.85-3.07-2.85M89.98,103.35c0,1.57,1.36,2.85,3.06,2.85,1.69,0,3.07-1.27,3.07-2.84h0c0-1.57-1.36-2.85-3.06-2.85-1.69,0-3.07,1.27-3.07,2.84M93.05,111.45c0,1.57,1.37,2.85,3.06,2.85s3.07-1.27,3.07-2.85h0c0-1.57-1.37-2.85-3.06-2.85s-3.07,1.27-3.07,2.85M177.88,57.49c-8-.21-14.67,5.65-14.9,13.09-.22,7.44,6.08,13.64,14.08,13.84.27,0,.54,0,.81,0,8-.21,14.31-6.41,14.08-13.84-.22-7.14-6.4-12.89-14.08-13.09M187.33,102.72c.09,1.86,1.79,3.3,3.79,3.21,1.87-.08,3.37-1.47,3.46-3.21,0-1.86-1.62-3.37-3.62-3.37s-3.62,1.51-3.62,3.37h0M194.58,89.78c-2,0-3.62,1.51-3.62,3.37,0,1.86,1.63,3.37,3.63,3.36s3.62-1.51,3.62-3.38c0-1.86-1.63-3.37-3.63-3.36h0M200.17,106.09c-2,0-3.62,1.52-3.61,3.37s1.63,3.36,3.63,3.36,3.62-1.52,3.61-3.37c0-1.86-1.63-3.36-3.63-3.36M202.16,93.15c-.06,1.86,1.51,3.42,3.51,3.47s3.68-1.4,3.74-3.27c0-.07,0-.15,0-.22-.07-1.86-1.75-3.32-3.75-3.26-1.91.06-3.44,1.49-3.5,3.27M205.78,102.72c.06,1.86,1.74,3.32,3.74,3.26,1.91-.06,3.45-1.48,3.51-3.26,0-1.86-1.62-3.37-3.63-3.37s-3.63,1.51-3.63,3.37M237.19,122.71c8,0,14.49-6.02,14.5-13.46,0-7.44-6.48-13.47-14.48-13.47h-.01c-8,0-14.49,6.04-14.48,13.47,0,7.43,6.49,13.46,14.48,13.46M237.19,70.96c0-7.44-6.49-13.47-14.49-13.47s-14.49,6.03-14.49,13.47,6.49,13.47,14.49,13.47,14.49-6.03,14.49-13.47M200.29,149.65c8.01,0,14.49-6.04,14.49-13.48,0-7.44-6.49-13.47-14.5-13.47s-14.49,6.04-14.49,13.48c0,7.44,6.49,13.47,14.5,13.47M163.39,95.77c-8,0-14.49,6.03-14.5,13.47,0,7.44,6.49,13.47,14.5,13.47s14.5-6.03,14.5-13.47c0-7.44-6.49-13.47-14.5-13.47M175.96,154.93c-16.5-6.43-29.3-19.05-35.26-34.73-3.59,15.5-14.95,28.29-30.1,34.73h65.35ZM119.63,128.37c6.77,0,12.26-5.1,12.26-11.4s-5.49-11.4-12.26-11.4-12.26,5.1-12.26,11.4,5.49,11.4,12.26,11.4M119.63,84.57c0-6.29-5.48-11.39-12.25-11.4,0,0,0,0-.01,0-6.77,0-12.26,5.1-12.26,11.39s5.49,11.39,12.26,11.39c6.77,0,12.26-5.08,12.27-11.37v-.02M100.67,139.76c0-6.29-5.49-11.39-12.26-11.39h0c-6.77,0-12.26,5.11-12.26,11.4,0,6.29,5.49,11.39,12.27,11.39s12.26-5.11,12.26-11.4"/>
  </g>
</svg>