<?xml version="1.0" encoding="UTF-8" standalone="no"?>
<svg
   id="Calque_1"
   viewBox="0 0 3000 3000"
   version="1.1"
   sodipodi:docname="micro plié.svg"
   inkscape:version="1.2.2 (732a01da63, 2022-12-09)"
   xmlns:inkscape="http://www.inkscape.org/namespaces/inkscape"
   xmlns:sodipodi="http://sodipodi.sourceforge.net/DTD/sodipodi-0.dtd"
   xmlns="http://www.w3.org/2000/svg"
   xmlns:svg="http://www.w3.org/2000/svg">
  <sodipodi:namedview
     id="namedview215"
     pagecolor="#ffffff"
     bordercolor="#000000"
     borderopacity="0.25"
     inkscape:showpageshadow="2"
     inkscape:pageopacity="0.0"
     inkscape:pagecheckerboard="0"
     inkscape:deskcolor="#d1d1d1"
     showgrid="false"
     inkscape:zoom="0.353"
     inkscape:cx="1500"
     inkscape:cy="1531.1615"
     inkscape:window-width="2400"
     inkscape:window-height="1262"
     inkscape:window-x="3592"
     inkscape:window-y="-8"
     inkscape:window-maximized="1"
     inkscape:current-layer="Calque_1" />
  <defs
     id="defs134">
    <style
       id="style132">
      .cls-1 {
        fill: #f7a62c;
      }

      .cls-2 {
        fill: #a61b76;
      }
    </style>
  </defs>
  <g
     id="g146"
     transform="rotate(17.086841,1581.8113,1195.8054)">
    <path
       class="cls-2"
       d="m 1777.78,1565.47 -13.24,-7.03 v -112.49 c -209.17,60.93 -328.31,14.06 -328.31,14.06 -15.19,-4.69 -161.51,-51.56 -161.51,-51.56 l 39.26,178.4 c -17.03,22.64 -26.33,56.73 -23.15,94.13 5.48,64.53 45.98,114.45 90.46,111.49 1.23,-0.08 2.45,-0.22 3.67,-0.38 l -75.82,497.55 c 0,0 -15.89,269.51 -15.89,283.57 0,14.06 248.88,100.77 248.88,100.77 l 222.4,-30.47 -15.89,-780.41 v -35.15 h -74.13 l 2.65,-46.82 42.36,-0.05 c 15.82,1.08 26.6,-15.17 33.64,-33.05 v 0 l 24.61,-16.17 c -7.94,32.81 52.95,-72.65 0,-166.39 z"
       id="path136" />
    <path
       class="cls-1"
       d="m 1720.92,1873.2 -197.13,10.89 c -1.3,0.07 -2.6,0.23 -3.88,0.48 l -81.21,15.84 c -12.29,2.4 -21.18,12.48 -21.42,24.3 l -9.97,495.81 c -0.14,6.73 2.58,13.24 7.56,18.08 l 112.81,109.75 c 5.97,5.81 14.53,8.58 23.03,7.46 l 187.87,-24.72 c 13.47,-1.77 23.41,-12.74 23.15,-25.55 l -12.37,-607.57 c -0.29,-14.36 -13.21,-25.62 -28.44,-24.78 z"
       id="path138" />
    <path
       class="cls-2"
       d="m 1537.84,1967.36 16.8,489.16 c 0.4,11.53 11.14,20.3 23.32,19.03 l 138.75,-14.45 c 10.65,-1.11 18.71,-9.58 18.71,-19.67 v -484.52 c 0,-11.45 -10.29,-20.51 -22.42,-19.75 l -155.55,9.81 c -11.3,0.71 -19.97,9.73 -19.6,20.39 z"
       id="path140" />
    <path
       class="cls-1"
       d="m 1313.98,1586.85 -39.26,-178.4 161.51,51.56 30.89,249.2 c 0,0 -20.89,14.74 -15.89,0 11.64,-34.25 -13.32,-235.66 -137.25,-122.36 z"
       id="path142" />
    <path
       class="cls-1"
       d="m 1397.1,1800.87 c 0,0 -14.12,69.18 -15.3,70.78 -1.18,1.6 64.72,-30.73 171.22,-35.39 l -2.94,-221.84 h 27.65 l 6.91,68.75 c 0,0 31.33,43.23 67.81,-4.69 l -2.35,-72.91 h 24.12 c 0,0 14.12,92.18 7.06,136.45 0,0 13.37,-127.07 1.98,-145.3 l -134.95,7.81 -4.71,135.93 c 0,0 -7.06,37.5 -22.95,50.52 -15.89,13.02 -73.55,19.79 -84.73,19.79 -11.18,0 -18.24,1.56 -38.83,-9.9 z"
       id="path144" />
  </g>
  <g
     id="g212">
    <path
       class="cls-2"
       d="M1168.55,1282l-49.37-603.66s-49.01-148.51,68.86-232.52c117.86-84.01,205.59-168.28,501.45-84.52,0,0,94.15,19.6,134.26,142.8,0,0,69.82,637.2,62.66,736.55-7.16,99.35,1.27,179.18-195.13,245.25-196.39,66.08-421.53-25.91-421.53-25.91,0,0-89.21-31.45-101.2-177.99Z"
       id="path148" />
    <g
       id="g210">
      <path
         class="cls-1"
         d="M1687.7,679.64c-3.82-32.19,2.98-32.88-12.53-34.91-18.64-2.44-149.8-2.99-177.23-1.79-37.26,1.63-154.52,13.42-186.18,23.27-4.06,1.26-7.95-.99-13.43,3.58-10.01,8.35-8.33,34.42,5.37,37.59,9.95,2.3,138.82-23.88,176.33-26.85,69.02-5.48,140,2.34,207.66-.9Z"
         id="path150" />
      <path
         class="cls-1"
         d="M1636.68,1486.11c23.39-.15,99.13-42.59,118.15-59.08,38.73-33.56,46.97-75.01,49.23-124.42,1.36-29.8,5.05-83.08-20.59-74.29-12.41,4.25-4.25,76.38-13.43,120.84-8.46,40.95-30.22,76.43-65.34,99.35-30.48,19.89-100.31,37.8-68.03,37.59Z"
         id="path152" />
      <path
         class="cls-1"
         d="M1530.16,1480.74c32.57.85,130.71-43.52,153.95-95.77,12.29-27.63,20.72-109.45,16.11-138.74-2.77-17.63-21.79-28.2-30.43-8.95-9.3,20.72,9.16,148.21-76.08,204.08-35.96,23.57-109.2,38.19-63.55,39.38Z"
         id="path154" />
      <path
         class="cls-1"
         d="M1335.93,1024.25c8.75,1.8,146.33-26.08,176.33-28.64,16.11-1.38,32.18-1.31,48.33-1.79,53.42-1.6,106.79,2.61,160.22,1.79l-.9-32.22-4.48-5.37c-4.44-.25-9.02.35-13.43,0-20.75-1.67-151.36-1.25-179.02,0-31.13,1.4-153,14.69-177.23,21.48-39.15,10.98-17.18,43.24-9.85,44.75Z"
         id="path156" />
      <path
         class="cls-1"
         d="M1328.77,970.54c8.56,2.85,152.01-26.35,178.12-28.64,56.61-4.98,113.49.24,170.07,0,5.42-.02,38.07.85,39.38-.9.41-11.33-7.65-33.9-19.69-36.7-57.84,1.62-115.89-2.54-173.65,0-38.58,1.7-154.5,14.01-186.18,25.06-33.8,11.8-12.46,39.71-8.06,41.17Z"
         id="path158" />
      <path
         class="cls-1"
         d="M1589.24,1484.32c38.96-2.17,135.56-45.87,155.74-119.05,6.25-22.66,18.39-124.22,0-135.16-52.29-31.09,25.54,148.07-101.14,221.98-29.86,17.42-104.24,34.99-54.6,32.22Z"
         id="path160" />
      <path
         class="cls-1"
         d="M1344.88,1129.87c8.74,2.83,132.93-22.74,181.7-26.85,16.92-1.43,33.22-1.23,50.12-1.79,50.02-1.67,101.04-.08,151.27,1.79,6.04-1.92,2.95-35.5-2.69-37.59-17.84-.47-35.87.64-53.71,0-46.82-1.68-92.79-2.55-139.63,0-35.66,1.94-151.14,13.26-179.02,23.27-34.03,12.22-12.18,39.84-8.06,41.17Z"
         id="path162" />
      <path
         class="cls-1"
         d="M1343.09,1077.95c8.7,1.6,130.64-24.99,174.54-28.64,57.88-4.81,115.82.35,173.65,0,5.07-.03,34.57.83,35.8-.9l-2.88-27.36c1.78-.89,1.48-1.64-.24-2.26l-.46-4.4c-3.71-4.79-50.09-2.53-59.08-2.69-32.28-.56-66.48-2.6-98.46-1.79-11.88.3-23.89,1.24-35.8,1.79-36.54,1.68-153.4,13.33-182.6,23.27-34.64,11.8-13.32,41.33-4.48,42.96Z"
         id="path164" />
      <path
         class="cls-1"
         d="M1312.66,813.01c8.8,2.7,152.19-26.26,179.91-28.64,64.39-5.53,129.82.08,194.23,1.79,9.96-2.36,12.57-34.92-.9-37.59-14.43-2.86-158.2-1.51-186.18,0-44.74,2.42-142.86,16.97-150.37,16.11-8.1,3.63-23.49,3.1-30.43,5.37-28.31,9.24-14.53,40.42-6.27,42.96Z"
         id="path166" />
      <path
         class="cls-1"
         d="M1626.83,1370.65c9.62-24.88,29.37-127.97,3.58-140.53-38.84-18.92-27.81,58.34-37.59,99.35-18.26,76.58-95.33,110.06-158.43,142.32v3.58c6.47.05,14.49,3.06,20.59,3.58,26.01,2.22,52.69-10.76,76.08-21.48,41.09-18.83,78.77-42.88,95.77-86.82Z"
         id="path168" />
      <path
         class="cls-1"
         d="M1309.08,761.1c4.99.97,23.68-4.37,31.33-5.37,49.42-6.47,98.91-19.32,148.58-23.27,66.24-5.27,133.33.92,199.6,1.79l.9-34.91c-3.47-4.74-14.32-2.13-25.06-2.69-47.1-2.45-120.67-2.26-168.28,0-36.21,1.72-152.48,12.71-180.81,21.48-34.9,10.81-14.53,41.36-6.27,42.96Z"
         id="path170" />
      <path
         class="cls-1"
         d="M1749.46,592.63l-4.48,4.48,2.69,33.12c14.7-1.43,29.36,1.14,43.86,1.79,19.15.85,42.96-1.79,42.96-1.79l3.58-35.8s-9.53-1.46-12.53-1.79c-20.12-2.24-53.54,1.66-76.08,0Z"
         id="path172" />
      <path
         class="cls-1"
         d="M1325.19,918.63c8.79,2.1,147.72-27.73,178.12-30.43,58.57-5.2,117.69.32,176.33,0,8.7-11.28-.09-24.74-5.37-35.8-30.77-.71-61.41-1.6-92.19-1.79-30.38-.19-61.01-.44-91.3,1.79-25.7,1.89-139.83,17.37-160.54,24.85-.18.05-.37.11-.58.21-30.67,11.88-10.99,39.61-4.48,41.17Z"
         id="path174" />
      <path
         class="cls-1"
         d="M1309.97,856.87c.26.57,7.51,7.89,8.06,8.06,12.6,3.84,146.94-25.76,174.54-28.64,59.93-6.25,119.76-1.35,179.91-1.79,9.04-8.14,9.31-21.13,7.16-32.22-30.75-1.02-61.44-1.4-92.19-1.79-24.25-.3-49.19-.97-73.4,0-39.7,1.6-152.72,12.93-186.18,23.27-15.81,4.89-27.35,12.24-17.9,33.12Z"
         id="path176" />
      <path
         class="cls-1"
         d="M1578.5,389.64c35.8,61.86,18.62,138.77,55.49,128,27.99-8.17-8.88-112.75-21.48-133.37-21.89-35.8-51.45-55.18-93.09-56.39-2.93-.09-14.87-3.48-16.11-.9,30.32,11.12,58.91,34.54,75.19,62.66Z"
         id="path178" />
      <path
         class="cls-1"
         d="M1669.8,509.58c1.91,4.01,9.93,11.27,14.32,11.64,31.96,2.65,1.44-109.49-17.9-140.53-15.9-25.51-37.09-41.68-66.24-47.44-5.76-1.14-16.59-1.56-23.27-2.69,90.11,44.34,84.26,160.5,93.09,179.02Z"
         id="path180" />
      <path
         class="cls-1"
         d="M1796.9,498.84c-.9-37.84-20.44-102.59-61.76-115.47,35.6,44.87,32.92,116.12,38.49,129.79,5.01,12.31,24.17,23.79,23.27-14.32Z"
         id="path182" />
      <path
         class="cls-1"
         d="M1429.91,338.62c27.6,7.69,57.54,26.46,75.19,49.23,44.52,57.47,30.11,142.03,69.82,128,21.1-7.46-.09-83.23-7.16-101.14-18.39-46.59-55.47-76.78-104.72-85.03-8.23,1.09-57.98.81-60.87,1.79-11.21,3.81,11.96,2.76,27.75,7.16Z"
         id="path184" />
      <path
         class="cls-1"
         d="M1787.14,802.27c-5.43,3.85,9.71,32.89,16.11,35.8,45.61,3.52,50.3.33,50.61-13.73.34-15.39-2.79-22.07-66.72-22.07Z"
         id="path186" />
      <path
         class="cls-1"
         d="M1662.64,352.94c13.02,13.72,25.87,28.26,34.01,45.65,26.62,56.86,15.5,125.76,41.17,124.42,25.26-1.33-.15-98.87-7.16-115.47-5.25-12.41-20.83-35.8-31.33-43.86-13.61-10.44-79.5-34.03-36.7-10.74Z"
         id="path188" />
      <path
         class="cls-1"
         d="M1792.42,1067.21c-1.74,1.23-.78,8.39-.9,10.74-.38,7.86,1.94,15.5,2.69,23.27,9.17.53,63.05.56,79.66,3.58,5.95,1.88,2.13-20.32,1.5-35.08-1.38-10.34-62.23-3.54-82.95-2.52Z"
         id="path190" />
      <path
         class="cls-1"
         d="M1882.25,1120.15c-23.9-3.84-77.6-1.06-86.25-1.03-2.95,5.82-10.39,44.19,83.24,40.28l1.79,76.08c-14.56,2.83-6.93,45.4-10.74,77.87-4.15,35.38-13.59,62.29-37.59,88.61-5.1,5.6-37.86,34.08-42.07,35.8-1.99.81-21.06,4.12-15.22-1.79,26.82-20.18,57.76-46.12,68.03-79.66,5.59-18.27,15.73-122.61-2.69-128-27.04-7.92-10.4,56.63-18.8,111.89-16.32,107.35-133.03,130.99-142.32,140.53-6.14,6.31,3.16,3.32,11.64,1.79.97,3.34-4.11,6.52-6.27,7.16-20.81,6.16-91.97,20.18-112.78,21.48-47.16,2.95-75.24-4.31-117.26-8.95-14.08-9.87-29.33-18.06-42.96-28.64-12.67-14.13-26.69-27.28-37.59-42.96l103.83-86.82c-45.44,19.76-33.63-135.34-41.17-174.54,118.24-19.29,172.34-23.62,296.27-17.9,2.03-1.05,5.6-29.74-6.27-32.22-7.18-1.5-128.59-2.17-146.79-1.79-13.85.29-27.39,1.11-41.17,1.79-32.64,1.61-162.15,13.06-184.39,23.27-20.56,9.44-18.14,30.92,0,41.17-23.12-.51-20.83-35.49-7.16-47.44-33.14-24.98-6.52-49.36-7.16-53.7-.49-3.31-29.61-18.24-5.37-53.7-33.26-21.96-3.71-49.98-5.37-53.7-32.09-24.98-3.81-45.46-3.58-48.33.31-3.86-34-24.55-5.37-53.7-34.24-29.41-4.3-52.28-5.37-55.5-4.49-2.14-9.74-4.57-12.53-8.95-15.26-23.95,6.89-41.01,5.37-44.75-32.77-21.95-5.13-47.13-5.37-50.12-31.88-30.76-2.4-48.89-3.58-53.7-25.53-14.07-16.52-54.64,14.32-47.44-4.23,1.1-8.52,1.64-8.95,1.79-27.46,9.78-15.77,41.41-2.69,42.96,8.17.97,136.29-25.9,162.01-28.64,72.06-7.68,145.14-2.03,217.5,0,3.21-8.07-.99-36.73-8.95-39.38-21.19-1.12-42.36-1.25-63.55-1.79-84.4-2.17-146.06,1.09-229.14,14.32-23.07-109.85,57.45-253.34-128.89-189.76,1.23-3.02,3.4-7.27,2.69-10.74-1.12-.38-10.7,15.82-11.64,17.9-71.35,28.83-119.94,76.72-127.1,156.64-1.61,18.01-.95,96.05,7.16,106.51,8.98,11.58,16.38-6.21,17.9,30.43-16.12,7.05-17.83,23.5,0,23.27-.19,1.34,5.15,20.44,3.58,26.85-17.18,6.98-16.59,24.43,0,19.69l3.58,28.64c-9.43,4.46-13.93,24.88,1.79,21.48l3.58,28.64c-13.31,6.23-14.26,24.82,0,21.48,1.34,5.53,4.03,21.84,3.58,25.06-.23,1.64-17.65,26.22,0,25.06l3.58,26.85c-14.69,6.57-16.04,23.79,1.79,21.48l3.58,23.27c-14.21,10.86-21.32,25.7,1.79,25.06-2.46,7.93,3.59,18.57,1.79,26.85-1.19.55-10.39,5.75-10.74,6.27-11.24,16.77,9.63,16.23,10.74,17.01,5.41,3.76,2.15,17.87,5.37,25.06-.73.33-12.22,9.11-12.53,9.85,3.94,8.84-5.03,16.06,12.53,15.22l3.58,25.06c-13.91,6.79-19.85,27.84,1.79,25.06,1.55,3.97,4.03,21.12,3.58,23.27-.75,3.64-30.93,23.36,0,26.85-.22,1.25,5.49,19.54,3.58,25.06-.79.36-13.81,9.14-14.32,9.85-10.76,14.84,8.83,79.18,16.11,96.67,17.38,41.76,49.54,78.64,89.51,99.35,18.49,21.73,93.74,44.09,124.42,50.12,81.54,16.04,174.38,18.6,254.2-5.37,58.75-17.64,133.08-56.53,176.33-100.25,18.7-18.91,38.27-43.17,46.54-68.92,5.19-16.14,18.66-90.09,7.16-99.35,1.56-17.8,3.76-53.05,1.79-68.92-.47-3.77-6.18-45.35-5.94-48.2ZM1378.05,602.04c-.3.05-.6.09-.91.14.31-.05.61-.1.91-.14ZM1435.83,1169.46c-12.56,2.11-39.93,7.54-59.6,11.01,19.67-3.48,47.04-8.9,59.6-11.01ZM1297.44,1226.54c-.08-.49,3.06-1.24,1.79-9.85-30.03-204.2-40.19-411.72-64.45-616.71-3.15-35.47-7.7-71.69-5.37-107.41l3.58.89,76.98,762.61c9.06,48.97,23.63,99.86,46.54,144.11-29.45-53.31-49.77-113.28-59.08-173.65ZM1363.68,1182.57c1.97-.3,4.19-.66,6.58-1.07-2.39.4-4.61.76-6.58,1.07Z"
         id="path192" />
      <path
         class="cls-1"
         d="M1802.27,1013.51c-3.02.21-6.1.08-9.17,0-3.97-.11-7.21,3.18-7.07,7.15.05,1.49.14,2.83.13,3.6-.02,2.48.98,13.17,2.41,19.77.69,3.16,3.5,5.42,6.74,5.42,7.09,0,14.3-.71,21.28-.13,11.72.97,36.18,1.19,48.4,1.48,3.73.09,10-31.58,3.12-32.96-21.46-4.3-55.97-5.01-65.84-4.32Z"
         id="path194" />
      <path
         class="cls-1"
         d="M1760.24,748.94c.3,4.5.52,6.35,1.79,10.74,2.86,9.87,5.08,18.43,15.22,23.27l73.4,3.58c1.34-.89-2.41-19.43-5.11-32.31-25.6-7.37-54.01-5.82-85.29-5.29Z"
         id="path196" />
      <path
         class="cls-1"
         d="M1790.51,959.8c-18.14-1.09-7.23,33.84,7.16,35.8,23.78,3.25,47.93,3.58,68.03,3.58,0,0,0-20.46-.77-32.73-20.91-12.02-45.75-7.5-74.42-6.66Z"
         id="path198" />
      <path
         class="cls-1"
         d="M1748.56,657.27c.43,3.58.9,22.01,2.69,23.27,15.17.48,30.51-.66,45.65,0,13.62.59,42.96,0,42.96,0,0,0-1.46-29.18-3.25-29.43-33.65-4.74-54.34-2.34-88.05-6.37-.21,4.2-.52,8.27,0,12.53Z"
         id="path200" />
      <path
         class="cls-1"
         d="M1791.53,909.68c-10.35,4.38-13.51,31.59-8.06,34.01,15.4-1.04,74.16.68,79.66,1.79v-19.69c-1.78-27.2-54.15-23.5-71.61-16.11Z"
         id="path202" />
      <path
         class="cls-1"
         d="M1753.93,696.65c-.5,4.29-.1,34.57,2.69,35.8,16.32.74,32.96-1.01,49.23,0,8.65.54,39.38,1.79,39.38,1.79,0,0,1.84-33.46-3.58-34.01-29-2.98-58.8.31-87.72-3.58Z"
         id="path204" />
      <path
         class="cls-1"
         d="M1813.01,854.18c-18.61,1.6-5.7,34.15-.9,35.8,36.8-.16,48.49,13.48,45.65-16.11-1.65-28.53-25.1-21.38-44.75-19.69Z"
         id="path206" />
      <path
         class="cls-1"
         d="M1753.04,907.89c41.97-7.77,25.51-118.71-28.64-107.41-40.66,8.48-19.66,116.35,28.64,107.41Z"
         id="path208" />
    </g>
  </g>
</svg>
