<?xml version="1.0" encoding="UTF-8" standalone="no"?>
<!-- Created with Inkscape (http://www.inkscape.org/) -->

<svg width="32" height="32" viewBox="0 0 32 32" version="1.1" id="svg1" xmlns="http://www.w3.org/2000/svg"
   xmlns:svg="http://www.w3.org/2000/svg" xmlns:rdf="http://www.w3.org/1999/02/22-rdf-syntax-ns#"
   xmlns:cc="http://creativecommons.org/ns#" xmlns:dc="http://purl.org/dc/elements/1.1/">
   <g id="layer1" transform="translate(-194.64587,-198.76443)">
      <circle
         style="fill:#f1f1f1"
         id="Circle" cx="210.64587" cy="214.76443" r="16" />
      <path
         d="m 211.32086,228.09669 v 0 l -0.30916,-0.15696 c -0.16489,-0.0523 -0.35039,-0.0785 -0.5565,-0.0785 l -0.30917,0.0785 c -0.12366,0.0262 -0.24732,0.0392 -0.37099,0.0392 l -1.113,-0.0785 c -0.0413,-0.0523 -0.16489,-0.0916 -0.37099,-0.11772 -1.52522,-0.10464 -2.28782,-0.1962 -2.28782,-0.27468 l 0.12366,-0.0785 0.371,-0.23544 -0.0618,-0.35315 0.12366,-0.15696 c 0.0824,-0.0523 0.12367,-0.0916 0.12367,-0.11772 l -0.371,-0.35315 c -0.16489,0 -0.24733,0.0916 -0.24733,0.27467 0,0.0785 -0.0206,0.1308 -0.0618,0.15696 -0.0413,-0.0262 -0.0824,-0.0392 -0.12367,-0.0392 v 0 c -0.12366,0 -0.26794,0.0916 -0.43283,0.27467 -0.12367,0.10464 -0.22672,0.15696 -0.30916,0.15696 -0.1649,0 -0.47406,-0.10464 -0.9275,-0.31392 l -0.49466,-0.54935 c -0.0824,-0.0262 -0.22673,-0.10464 -0.43284,-0.23543 l -0.61833,-0.51011 -0.12366,-0.15696 c -0.0412,-0.0785 -0.10306,-0.17003 -0.1855,-0.27467 -0.28856,-0.31392 -0.32977,-0.53628 -0.12366,-0.66707 -0.12367,-0.0262 -0.32978,-0.1308 -0.61833,-0.31392 0.0413,-0.0523 0.0618,-0.17003 0.0618,-0.35315 0,-0.0523 -0.0206,-0.1308 -0.0618,-0.23544 0,-0.10464 -0.0206,-0.20927 -0.0618,-0.31391 l -0.12366,-0.39239 c 0,-0.0262 0.10306,-0.17004 0.30916,-0.43164 -0.2061,-0.0523 -0.35039,-0.10464 -0.43283,-0.15696 0.0824,-0.0523 0.1855,-0.23543 0.30917,-0.54935 0.0413,-0.0785 0.0618,-0.22235 0.0618,-0.43163 l -0.12367,-0.15695 c -0.12366,-0.0523 -0.1855,-0.10465 -0.1855,-0.15696 0,-0.23544 0.0824,-0.52319 0.24734,-0.86327 l -0.371,-0.11772 -0.0618,-0.98098 c 0.0413,0.0262 0.0824,-0.2616 0.12367,-0.86327 l 0.0618,-0.11771 c 0.0824,-0.10464 0.12367,-0.17004 0.12367,-0.1962 -0.16489,-0.10464 -0.26794,-0.22235 -0.30917,-0.35315 0,-0.34007 0.0618,-0.70631 0.1855,-1.0987 0.12367,-0.44471 0.1855,-0.73247 0.1855,-0.86326 0,-0.28776 -0.12366,-0.56244 -0.371,-0.82403 l 0.12367,-0.90251 c 0.12367,0 0.24733,-0.0523 0.371,-0.15695 v -0.15696 c -0.16489,-0.0523 -0.26794,-0.0785 -0.30917,-0.0785 l -0.43282,0.0785 c 0.0413,-0.2616 0.0618,-0.52319 0.0618,-0.78479 v -0.94174 c -0.0824,-0.0785 -0.1649,-0.17003 -0.24734,-0.27467 0,-0.1308 0.0618,-0.44471 0.18551,-0.94175 l -0.12367,-0.31391 c 0.0412,-0.2616 0.0824,-0.37932 0.12367,-0.35316 -0.0413,-0.0785 -0.0824,-0.22236 -0.12367,-0.43163 -0.0413,-0.28776 -0.10306,-0.44471 -0.1855,-0.47087 0,-0.10464 0.2061,-0.28776 0.61833,-0.54935 -0.0824,-0.1308 -0.24733,-0.17004 -0.49467,-0.11772 0,-0.10464 0.0618,-0.24851 0.18551,-0.43163 -0.32978,-0.20928 -0.49467,-0.36623 -0.49467,-0.47087 0,-0.0785 0.0618,-0.20928 0.1855,-0.3924 0.0824,-0.0523 0.26794,-0.0785 0.55649,-0.0785 -0.0412,0 0.30917,0.0916 1.05117,0.27468 0.0412,-0.0262 0.0618,-0.0785 0.0618,-0.15696 0,-0.23543 -0.1855,-0.35315 -0.5565,-0.35315 l -0.30916,0.11772 c -0.12367,0 -0.39161,-0.0916 -0.80383,-0.27468 0.0413,-0.23544 0.0618,-0.45779 0.0618,-0.66707 0.0413,-0.23543 0.0413,-0.45779 0,-0.66707 l -0.24733,-0.39239 v -0.11772 c 0,-0.34007 0.1855,-0.51011 0.5565,-0.51011 l 0.30916,0.0785 0.371,0.0785 0.371,-0.11772 0.371,-0.0785 0.30916,0.0785 0.24733,0.0785 0.24733,-0.0392 h 0.1855 l 0.43283,0.0785 c 0.12367,0.0262 0.20611,0.0523 0.24733,0.0785 0.0824,0.0262 0.14428,0.0392 0.1855,0.0392 0.0824,0 0.371,-0.0785 0.86567,-0.23543 0.49466,-0.1308 0.7626,-0.19619 0.80382,-0.19619 l 0.24733,0.0785 c 0.12367,0 0.26795,0.013 0.43284,0.0392 h 0.24733 l 0.24733,-0.0785 0.43283,0.31391 -0.30916,0.47087 c 0.0413,0.2616 0.0618,0.43164 0.0618,0.51011 0,0.0785 0.0206,0.0916 0.0618,0.0392 0,0.0785 -0.0824,0.15695 -0.24733,0.23543 l -0.12367,0.15696 0.30917,0.35315 c 0.12366,0.18312 0.1855,0.39239 0.1855,0.62783 -0.0413,0.10464 -0.0618,0.22236 -0.0618,0.35315 v 0.43163 c -0.49466,0.18312 -0.74199,0.35316 -0.74199,0.51012 0,0.0785 0.14427,0.0785 0.43283,0 0.20611,0.13079 0.30916,0.23543 0.30916,0.31391 0,0.0523 -0.0618,0.18312 -0.18549,0.3924 -0.12367,0.23543 -0.1855,0.37931 -0.1855,0.43163 0.0824,0.15695 0.30916,0.35315 0.68016,0.58859 -0.16489,0.10464 -0.22673,0.26159 -0.1855,0.47087 l 0.12367,0.51011 -0.12367,0.1962 0.0618,0.0392 c 0.0413,0.0262 0.0618,0.0785 0.0618,0.15696 v 0.35315 l -0.49467,0.11772 c 0.0413,0.10464 0.1855,0.17003 0.43283,0.1962 0.12367,0.0523 0.20611,0.14388 0.24734,0.27467 0,0.15696 -0.10306,0.27468 -0.30917,0.35315 l 0.0618,0.15696 v 0.78479 l -0.30916,-0.0392 -0.1855,0.11772 c -0.0412,0.0523 -0.12367,0.11772 -0.24733,0.1962 -0.16489,0.10464 -0.24733,0.17003 -0.24733,0.1962 l 0.18549,0.19619 c 0.12367,-0.0785 0.14428,-0.15696 0.0618,-0.23543 0.12366,0 0.30916,-0.0392 0.55649,-0.11772 0.24734,-0.0523 0.41223,-0.0654 0.49467,-0.0392 -0.0824,0.15695 -0.12367,0.27467 -0.12367,0.35315 v 0.0785 c -0.24733,0.10464 -0.371,0.24851 -0.371,0.43163 0.0824,0.10464 0.26794,0.22236 0.5565,0.35315 -0.16489,0.2616 -0.22672,0.48395 -0.1855,0.66707 l 0.24733,0.66707 v 0.15696 c 0,0.0523 -0.0206,0.11772 -0.0618,0.19619 l 0.12367,0.0392 c -0.0413,0 -0.0824,0.0392 -0.12367,0.11771 0.12367,0.1308 0.16489,0.22237 0.12367,0.27468 l -0.24733,0.31392 c 0.12366,0.34007 0.18549,0.85018 0.18549,1.53033 -0.0412,0.0262 -0.0618,0.0523 -0.0618,0.0785 v 0 c -0.0413,0.0785 -0.0824,0.11771 -0.12366,0.11771 -0.0413,0.0262 -0.0824,0.0654 -0.12367,0.11772 -0.0824,0.1308 -0.10306,0.34008 -0.0618,0.62783 l 0.30916,0.15696 v 0.0785 c 0,0.10464 -0.0206,0.20927 -0.0618,0.31391 -0.0412,0.10464 -0.0412,0.30084 0,0.58859 l 0.30916,0.54935 c -0.28855,0.10464 -0.43283,0.1962 -0.43283,0.27468 0,0.0262 0.0206,0.0654 0.0618,0.11772 0.0412,0.0262 0.0824,0.0654 0.12366,0.11771 l 0.12367,0.23544 v 0.0392 c 0,0.0523 -0.10306,0.27468 -0.30917,0.66707 0.16489,0.0523 0.28856,0.10464 0.371,0.15696 0.0824,0.15696 0.24733,0.31391 0.49466,0.47087 v 0.1962 l -0.12366,0.0785 c -0.16489,-0.0523 -0.45344,-0.1962 -0.86566,-0.43164 h -0.12367 c -0.0824,0.0523 -0.12367,0.0916 -0.12367,0.11772 0,0.10464 0.12367,0.22236 0.371,0.35315 l 0.49467,0.23544 c 0.2061,0.0262 0.35039,0.0392 0.43283,0.0392 h 0.12366 l 0.61833,-0.15696 c 0.0413,0.20928 0.41223,0.37932 1.113,0.51011 l 0.18549,-0.11772 -0.30916,-0.19619 v -0.15696 l 0.742,-0.0392 c 0.0824,0 0.2061,0.0523 0.37099,0.15696 0.371,-0.15696 0.5565,-0.40548 0.5565,-0.74555 h 1.05116 c 0.45344,0 0.63894,-0.22236 0.5565,-0.66707 l 0.1855,-0.15696 c 0,-0.0523 -0.0824,-0.0915 -0.24734,-0.11772 -0.28855,0.34008 -0.35039,0.56243 -0.18549,0.66707 l -0.1855,0.11772 c -0.45344,-0.15696 -0.68016,-0.30084 -0.68016,-0.43163 l 0.37099,-0.35316 c 0.12367,-0.15695 0.1855,-0.34007 0.1855,-0.54934 v -0.27468 c 0,-0.10464 -0.0412,-0.20928 -0.12367,-0.31392 l 0.24734,-0.31391 -0.0618,-0.0392 -0.30916,0.0785 c -0.12367,-0.31392 -0.1855,-0.5232 -0.1855,-0.62784 0.0824,-0.26159 0.14427,-0.52318 0.1855,-0.78478 0.0412,-0.28775 0.0824,-0.56243 0.12366,-0.82403 l -0.0618,-0.31391 0.12367,-0.0392 -0.12367,-0.0392 c -0.0412,-0.0262 -0.0206,-0.10464 0.0618,-0.23543 v -0.0785 c -0.0413,-0.0262 -0.10305,-0.0523 -0.1855,-0.0785 l -0.18549,-0.11772 0.37099,-0.82403 c -0.0824,-0.0523 -0.1855,-0.0785 -0.30916,-0.0785 h -0.12366 l -0.0618,-0.3924 -0.12367,-0.31391 c 0.0413,-0.10464 0.0618,-0.20927 0.0618,-0.31391 0.0413,-0.1308 0.0618,-0.28776 0.0618,-0.47088 0.20611,-0.0785 0.45344,-0.22236 0.742,-0.43163 -0.0824,-0.0523 -0.14428,-0.0785 -0.1855,-0.0785 l -0.30917,0.0785 c -0.0413,0 -0.10305,-0.0392 -0.18549,-0.11772 -0.12367,-0.20927 -0.18551,-0.40547 -0.18551,-0.58859 l 0.0618,-0.11772 v -0.0392 c 0.0413,0 0.0618,-0.0131 0.0618,-0.0392 l -0.0618,-0.70631 0.12367,-0.15696 c 0,-0.0785 -0.0413,-0.15695 -0.12367,-0.23544 l -0.1855,-0.19619 c 0,-0.1308 0.0824,-0.2616 0.24733,-0.39239 0.20611,0 0.39161,0.11771 0.5565,0.35315 h 0.24733 l 0.0618,-0.11772 c 0,-0.23543 -0.16489,-0.31391 -0.49466,-0.23543 l 0.0618,-0.15696 c -0.0824,-0.10464 -0.24733,-0.17004 -0.49466,-0.1962 l -0.1855,-0.39239 c 0.0412,-0.0523 0.0618,-0.1308 0.0618,-0.23544 0.0413,-0.13079 0.0413,-0.28775 0,-0.47087 l -0.0618,-0.31391 c 0.45344,-0.23544 0.68016,-0.43164 0.68016,-0.58859 0,0.0262 -0.1855,-0.15696 -0.5565,-0.54935 0,-0.0262 -0.0206,-0.0392 -0.0618,-0.0392 v -0.0785 c 0,-0.0785 0.0618,-0.19619 0.1855,-0.35315 l -0.24733,-0.43163 0.12366,-0.62783 -0.12366,-0.27467 -0.12367,-0.23544 c 0,-0.0262 0.10306,-0.14388 0.30917,-0.35316 l -0.12367,-0.43163 0.12367,-0.0785 c 0.0413,-0.0523 0.0824,-0.0915 0.12367,-0.11771 0.0413,-0.0523 0.0618,-0.1308 0.0618,-0.23544 -0.12367,-0.15696 -0.32978,-0.51011 -0.61833,-1.05946 -0.0413,-0.10464 -0.0824,-0.22236 -0.12367,-0.35316 v -0.47087 l -0.24733,-0.31391 0.1855,-0.11772 1.29849,-0.11772 c 0.20611,0 0.371,0.0654 0.49466,0.1962 l 0.1855,-0.0392 0.24734,-0.0392 c 0.0824,0 0.26793,0.0131 0.55649,0.0392 0.28856,0.0262 0.65956,0.0654 1.11299,0.11771 l 0.30917,0.0785 c 0.0824,0 0.22672,-0.10464 0.43283,-0.31391 h 0.61833 l 0.61833,-0.0785 c 0.20611,-0.0262 0.43283,-0.0523 0.68016,-0.0785 0.41223,0 0.63894,0.0523 0.68016,0.15696 0.0413,0.10464 0.0413,0.1962 0,0.27467 v 0.11772 l -0.12366,0.23544 v 0.15695 0.27468 c 0,0.10464 0.0206,0.23543 0.0618,0.39239 l -0.24733,0.15696 0.12367,0.23543 c 0.0413,0.10464 -0.0618,0.1962 -0.30917,0.27468 0.371,0.0523 0.49466,0.2616 0.371,0.62783 l -0.1855,0.11772 c 0.0824,0.13079 0.14428,0.28775 0.1855,0.47087 0.0412,0.15696 0.0824,0.34007 0.12366,0.54935 0,-0.0523 -0.0206,0 -0.0618,0.15696 -0.0412,0.15696 -0.10305,0.41855 -0.18549,0.78478 0.0824,0.23544 0.14427,0.49704 0.18549,0.78479 l -0.12366,0.15696 c -0.12367,0.10464 -0.1855,0.17003 -0.1855,0.19619 0,0.0523 0.12367,0.14388 0.37099,0.27468 l 0.1855,0.58859 0.1855,2.94295 c -0.16489,0.10464 -0.22672,0.23543 -0.1855,0.39239 l -0.12366,0.0785 c -0.0413,0.0523 -0.0618,0.10464 -0.0618,0.15695 l 0.24734,0.27468 c 0.0824,0.10464 0.12366,0.18312 0.12366,0.23543 0.0413,0.0262 0.0618,0.0523 0.0618,0.0785 l -0.1855,0.23544 c -0.12367,0.10464 -0.1855,0.18312 -0.1855,0.23543 l 0.43283,0.66708 h -0.0618 c -0.24734,0 -0.41223,0.10464 -0.49467,0.31391 l -0.18549,0.54935 c -0.0413,0.39239 -0.10306,0.58859 -0.18551,0.58859 0.0824,0.0262 0.18551,0.0523 0.30917,0.0785 0.12366,0.0262 0.22672,0.0654 0.30916,0.11771 0.12367,0.41856 0.14428,0.85019 0.0618,1.2949 -0.0413,0.20928 -0.0824,0.3924 -0.12367,0.54936 v 0.39238 l -0.43283,0.15697 0.12367,0.11771 0.30916,0.0392 0.1855,-0.0392 0.12367,0.11772 c -0.0413,0.0523 -0.12367,0.1308 -0.24734,0.23544 -0.0824,0.0785 -0.2061,0.18312 -0.37099,0.31391 0.16489,0.0262 0.32977,0.0131 0.49466,-0.0392 0.16489,0.0262 0.24733,0.10465 0.24733,0.23544 l -0.0618,0.15696 c -0.0824,0.10464 -0.12367,0.17004 -0.12367,0.1962 l 0.12367,0.82402 -0.24733,0.51012 c 0.0413,0.0262 0.0618,0.10463 0.0618,0.23543 -0.20611,0.39239 -0.30917,0.53627 -0.30917,0.43163 0.0413,0.34007 0.0618,0.52319 0.0618,0.54935 -0.0824,0.0523 -0.12367,0.11772 -0.12367,0.1962 l -0.0618,0.58859 c -0.32977,0.0523 -0.49467,0.26159 -0.49467,0.62782 -0.16488,0.0262 -0.41222,0.14388 -0.74199,0.35316 -0.0413,0.10464 -0.12367,0.22236 -0.24733,0.35316 -0.0824,0.10464 -0.20611,0.24851 -0.371,0.43163 l -0.742,0.27467 v 0.1962 h -0.18549 c -0.28856,0 -0.49467,0.10464 -0.61833,0.31392 l -0.98933,0.31391 c -0.16489,0 -0.47406,0.0392 -0.9275,0.11771 -0.16489,0.0523 -0.3916,0.10464 -0.68016,0.15696 -0.28855,0.0785 -0.59772,0.15696 -0.92749,0.23544 h -0.0618 c -0.0413,0 -0.0618,-0.0131 -0.0618,-0.0392 h -0.0618 z m -6.18329,-21.93478 c 0,-0.0523 0.0206,-0.0915 0.0618,-0.11771 0,-0.0262 -0.16489,-0.18312 -0.49467,-0.47088 -0.28855,-0.20927 -0.43283,-0.37931 -0.43283,-0.51011 -0.28855,0.0262 -0.43283,0.0916 -0.43283,0.1962 v 0.47087 c 0,0.15696 0.1855,0.2616 0.5565,0.31392 z m 12.61392,0.11772 0.12367,-0.0392 h 0.12366 c 0.0413,-0.0262 0.0618,-0.11772 0.0618,-0.27468 -0.0824,-0.20927 -0.1855,-0.31391 -0.30917,-0.31391 -0.20611,0.2616 -0.30916,0.36623 -0.30916,0.31391 0,0.0785 0.10305,0.18312 0.30916,0.31392 z m -2.41148,-0.39239 c 0,-0.0523 -0.0413,-0.10464 -0.12367,-0.15696 -0.0413,-0.0523 -0.12367,-0.0392 -0.24733,0.0392 0,0.0785 0.12366,0.11771 0.371,0.11771 z m 0.74199,2.78599 c 0.12367,0.0262 0.24733,-0.0262 0.371,-0.15695 -0.0413,-0.0262 -0.12367,-0.0392 -0.24733,-0.0392 -0.0824,0 -0.12367,0.0654 -0.12367,0.1962 z m -10.63527,3.06067 0.5565,-0.1962 c 0,-0.0523 -0.0824,-0.13079 -0.24733,-0.23543 l -0.12367,-0.0785 h -0.1855 l -0.1855,0.11772 c 0.0824,0.0523 0.14427,0.18311 0.1855,0.39239 z m -1.79315,3.80621 c 0.0412,-0.0262 0.14427,-0.0654 0.30916,-0.11772 -0.0413,-0.0262 -0.14428,-0.0262 -0.30916,0 z m 14.15974,0.27468 c 0.0824,0.0262 0.1649,0.0131 0.24734,-0.0392 0.0412,-0.0262 0.0206,-0.0915 -0.0618,-0.1962 -0.12366,0.0262 -0.1855,0.10465 -0.1855,0.23544 z m -13.35592,-0.0392 c 0.12367,0.0262 0.24733,-0.013 0.371,-0.11772 -0.0413,-0.0262 -0.10306,-0.0392 -0.1855,-0.0392 -0.12366,0 -0.1855,0.0523 -0.1855,0.15696 z m 3.64815,0.70631 v 0 c 0,-0.0262 0,-0.0262 0,0 z m -1.05116,0.82403 c 0.12366,0.0262 0.24733,-0.0131 0.37099,-0.11772 -0.12366,-0.0785 -0.22672,-0.0916 -0.30916,-0.0392 -0.0824,0.0523 -0.10306,0.10463 -0.0618,0.15695 z m -1.91682,0.27467 h -0.24734 l 0.24734,0.1962 z m 0.55649,2.11892 c 0.0413,-0.0262 0.0618,-0.0654 0.0618,-0.11771 0,-0.0785 -0.0824,-0.11772 -0.24734,-0.11772 -0.0413,0.0785 0.0206,0.15695 0.1855,0.23543 z m 9.27495,0.66707 0.12366,-0.0785 c 0.0413,-0.0262 0.0618,-0.0262 0.0618,0 l 0.0618,-0.0392 -0.12367,-0.11772 z m -7.11079,1.13794 c 0,-0.0523 -0.0413,-0.10464 -0.12367,-0.15695 -0.0412,-0.0523 -0.12367,-0.0392 -0.24733,0.0392 0,0.0785 0.12366,0.11772 0.371,0.11772 z m 7.41995,1.33414 c 0.20611,0 0.49466,-0.11772 0.86566,-0.35316 v -0.54935 h -0.371 c -0.32977,0 -0.68016,0.20928 -1.05115,0.62783 0.16488,0.18312 0.35038,0.27468 0.55649,0.27468 z m -14.03608,-0.74555 0.0618,0.0392 h -0.0618 z m 17.99339,1.72653 c -0.0413,0.0523 -0.0618,0.0654 -0.0618,0.0392 z m -3.46265,0.1962 c 0.0413,-0.0523 0.0206,-0.10464 -0.0618,-0.15696 -0.0412,-0.0262 -0.14427,-0.0131 -0.30916,0.0392 0.0824,0.0785 0.20611,0.11772 0.37099,0.11772 z m -7.85278,2.1974 c 0,-0.0523 -0.0618,-0.0916 -0.1855,-0.11772 l -0.12367,0.0392 c 0.0413,0.0262 0.0824,0.0392 0.12367,0.0392 0.0824,0 0.14427,0.0131 0.1855,0.0392 z m 0.12366,0.62783 c 0,-0.0523 -0.0412,-0.10464 -0.12366,-0.15696 -0.0412,-0.0523 -0.12367,-0.0392 -0.24733,0.0392 0,0.0785 0.12366,0.11772 0.37099,0.11772 z"
         id="U"
         style="fill:#003f5d;"/>
   </g>
</svg>