<svg
   width="150"
   height="50"
   viewBox="0 0 150 50"
   version="1.1"
   id="svg1"
   xmlns="http://www.w3.org/2000/svg"
   xmlns:svg="http://www.w3.org/2000/svg" 
   title="logo d'Up'n'Com, comme tamponé sur un document"
   >
  <g
     id="layer1"
     transform="translate(-200,-197)">
    <path
       d="m 210.57902,237.23242 v 0 q 0,0 -0.32,-0.256 -0.256,-0.128 -0.576,-0.128 l -0.32,0.128 q -0.192,0.064 -0.384,0.064 l -1.152,-0.128 q -0.064,-0.128 -0.384,-0.192 -2.368,-0.256 -2.368,-0.448 0,0 0.128,-0.128 l 0.384,-0.384 -0.064,-0.576 q 0,0 0.128,-0.256 0.128,-0.128 0.128,-0.192 l -0.384,-0.576 q -0.256,0 -0.256,0.448 0,0.192 -0.064,0.256 -0.064,-0.064 -0.128,-0.064 0,0 0,0 -0.192,0 -0.448,0.448 -0.192,0.256 -0.32,0.256 -0.256,0 -0.96,-0.512 l -0.512,-0.896 q -0.128,-0.064 -0.448,-0.384 l -0.64,-0.832 q -0.064,-0.128 -0.128,-0.256 -0.064,-0.192 -0.192,-0.448 -0.448,-0.768 -0.128,-1.088 -0.192,-0.064 -0.64,-0.512 0.064,-0.128 0.064,-0.576 0,-0.128 -0.064,-0.384 0,-0.256 -0.064,-0.512 l -0.128,-0.64 q 0,-0.064 0.32,-0.704 -0.32,-0.128 -0.448,-0.256 0.128,-0.128 0.32,-0.896 0.064,-0.192 0.064,-0.704 0,0 -0.128,-0.256 -0.192,-0.128 -0.192,-0.256 0,-0.576 0.256,-1.408 l -0.384,-0.192 -0.064,-1.6 q 0.064,0.064 0.128,-1.408 0,0 0.064,-0.192 0.128,-0.256 0.128,-0.32 -0.256,-0.256 -0.32,-0.576 0,-0.832 0.192,-1.792 0.192,-1.088 0.192,-1.408 0,-0.704 -0.384,-1.344 l 0.128,-1.472 q 0.192,0 0.384,-0.256 v -0.256 q -0.256,-0.128 -0.32,-0.128 l -0.448,0.128 q 0.064,-0.64 0.064,-1.28 0,-0.704 0,-1.536 -0.128,-0.192 -0.256,-0.448 0,-0.32 0.192,-1.536 l -0.128,-0.512 q 0.064,-0.64 0.128,-0.576 -0.064,-0.192 -0.128,-0.704 -0.064,-0.704 -0.192,-0.768 0,-0.256 0.64,-0.896 -0.128,-0.32 -0.512,-0.192 0,-0.256 0.192,-0.704 -0.512,-0.512 -0.512,-0.768 0,-0.192 0.192,-0.64 0.128,-0.128 0.576,-0.128 -0.064,0 1.088,0.448 0.064,-0.064 0.064,-0.256 0,-0.576 -0.576,-0.576 l -0.32,0.192 q -0.192,0 -0.832,-0.448 0.064,-0.576 0.064,-1.088 0.064,-0.576 0,-1.088 l -0.256,-0.64 v -0.192 q 0,-0.832 0.576,-0.832 l 0.32,0.128 q 0.384,0.128 0.384,0.128 l 0.384,-0.192 q 0.384,-0.128 0.384,-0.128 l 0.32,0.128 q 0.256,0.128 0.256,0.128 l 0.256,-0.064 h 0.192 l 0.448,0.128 q 0.192,0.064 0.256,0.128 0.128,0.064 0.192,0.064 0.128,0 0.896,-0.384 0.768,-0.32 0.832,-0.32 0.128,0.064 0.256,0.128 0.192,0 0.448,0.064 0.128,0 0.256,0 0.128,-0.064 0.256,-0.128 l 0.448,0.512 -0.32,0.768 q 0.064,0.64 0.064,0.832 0,0.192 0.064,0.064 0,0.192 -0.256,0.384 l -0.128,0.256 0.32,0.576 q 0.192,0.448 0.192,1.024 -0.064,0.256 -0.064,0.576 0,0.256 0,0.704 -0.768,0.448 -0.768,0.832 0,0.192 0.448,0 0.32,0.32 0.32,0.512 0,0.128 -0.192,0.64 -0.192,0.576 -0.192,0.704 0.128,0.384 0.704,0.96 -0.256,0.256 -0.192,0.768 l 0.128,0.832 q 0,0 -0.128,0.32 l 0.064,0.064 q 0.064,0.064 0.064,0.256 v 0.576 l -0.512,0.192 q 0.064,0.256 0.448,0.32 0.192,0.128 0.256,0.448 0,0.384 -0.32,0.576 l 0.064,0.256 v 1.28 l -0.32,-0.064 q -0.064,0.064 -0.192,0.192 -0.064,0.128 -0.256,0.32 -0.256,0.256 -0.256,0.32 l 0.192,0.32 q 0.192,-0.192 0.064,-0.384 0.192,0 0.576,-0.192 0.384,-0.128 0.512,-0.064 -0.128,0.384 -0.128,0.576 v 0.128 q -0.384,0.256 -0.384,0.704 0.128,0.256 0.576,0.576 -0.256,0.64 -0.192,1.088 l 0.256,1.088 q 0,0.064 0,0.256 0,0.128 -0.064,0.32 l 0.128,0.064 q -0.064,0 -0.128,0.192 0.192,0.32 0.128,0.448 l -0.256,0.512 q 0.192,0.832 0.192,2.496 -0.064,0.064 -0.064,0.128 v 0 q -0.064,0.192 -0.128,0.192 -0.064,0.064 -0.128,0.192 -0.128,0.32 -0.064,1.024 l 0.32,0.256 v 0.128 q 0,0.256 -0.064,0.512 -0.064,0.256 0,0.96 l 0.32,0.896 q -0.448,0.256 -0.448,0.448 0,0.064 0.064,0.192 0.064,0.064 0.128,0.192 l 0.128,0.384 v 0.064 q 0,0.128 -0.32,1.088 0.256,0.128 0.384,0.256 0.128,0.384 0.512,0.768 v 0.32 l -0.128,0.128 q -0.256,-0.128 -0.896,-0.704 h -0.128 q -0.128,0.128 -0.128,0.192 0,0.256 0.384,0.576 l 0.512,0.384 q 0.32,0.064 0.448,0.064 0.128,0 0.128,0 l 0.64,-0.256 q 0.064,0.512 1.152,0.832 l 0.192,-0.192 -0.32,-0.32 v -0.256 l 0.768,-0.064 q 0.128,0 0.384,0.256 0.576,-0.384 0.576,-1.216 h 1.088 q 0.704,0 0.576,-1.088 l 0.192,-0.256 q 0,-0.128 -0.256,-0.192 -0.448,0.832 -0.192,1.088 l -0.192,0.192 q -0.704,-0.384 -0.704,-0.704 l 0.384,-0.576 q 0.192,-0.384 0.192,-0.896 0,-0.192 0,-0.448 0,-0.256 -0.128,-0.512 l 0.256,-0.512 -0.064,-0.064 q 0,0 -0.32,0.128 -0.192,-0.768 -0.192,-1.024 0.128,-0.64 0.192,-1.28 0.064,-0.704 0.128,-1.344 l -0.064,-0.512 0.128,-0.064 -0.128,-0.064 q -0.064,-0.064 0.064,-0.384 v -0.128 q -0.064,-0.064 -0.192,-0.128 -0.064,-0.064 -0.192,-0.192 l 0.384,-1.344 q -0.128,-0.128 -0.32,-0.128 h -0.128 l -0.064,-0.64 -0.128,-0.512 q 0.064,-0.256 0.064,-0.512 0.064,-0.32 0.064,-0.768 0.32,-0.192 0.768,-0.704 -0.128,-0.128 -0.192,-0.128 l -0.32,0.128 q -0.064,0 -0.192,-0.192 -0.192,-0.512 -0.192,-0.96 l 0.064,-0.192 q 0,-0.064 0,-0.064 0.064,0 0.064,-0.064 l -0.064,-1.152 q 0.128,-0.256 0.128,-0.256 0,-0.192 -0.128,-0.384 l -0.192,-0.32 q 0,-0.32 0.256,-0.64 0.32,0 0.576,0.576 h 0.256 l 0.064,-0.192 q 0,-0.576 -0.512,-0.384 l 0.064,-0.256 q -0.128,-0.256 -0.512,-0.32 l -0.192,-0.64 q 0.064,-0.128 0.064,-0.384 0.064,-0.32 0,-0.768 l -0.064,-0.512 q 0.704,-0.576 0.704,-0.96 0,0.064 -0.576,-0.896 0,-0.064 -0.064,-0.064 0,-0.064 0,-0.128 0,-0.192 0.192,-0.576 0,0 -0.256,-0.704 l 0.128,-1.024 -0.128,-0.448 q -0.128,-0.384 -0.128,-0.384 0,-0.064 0.32,-0.576 l -0.128,-0.704 q 0.064,-0.064 0.128,-0.128 0.064,-0.128 0.128,-0.192 0.064,-0.128 0.064,-0.384 -0.192,-0.384 -0.64,-1.728 -0.064,-0.256 -0.128,-0.576 0,-0.32 0,-0.768 l -0.256,-0.512 0.192,-0.192 1.344,-0.192 q 0.32,0 0.512,0.32 l 0.192,-0.064 0.256,-0.064 q 0.128,0 0.576,0.064 0.448,0.064 1.152,0.192 l 0.32,0.128 q 0.128,0 0.448,-0.512 h 0.64 q 0.32,-0.064 0.64,-0.128 0.32,-0.064 0.704,-0.128 0.64,0 0.704,0.256 0.064,0.256 0,0.448 0,0.128 0,0.192 l -0.128,0.384 v 0.256 q 0,0.192 0,0.448 0,0.256 0.064,0.64 l -0.256,0.256 q 0,0 0.128,0.384 0.064,0.256 -0.32,0.448 0.576,0.128 0.384,1.024 l -0.192,0.192 q 0.128,0.32 0.192,0.768 0.064,0.384 0.128,0.896 0,-0.128 -0.064,0.256 -0.064,0.384 -0.192,1.28 0.128,0.576 0.192,1.28 0,0 -0.128,0.256 -0.192,0.256 -0.192,0.32 0,0.128 0.384,0.448 l 0.192,0.96 0.192,4.8 q -0.256,0.256 -0.192,0.64 0,0 -0.128,0.128 -0.064,0.128 -0.064,0.256 l 0.256,0.448 q 0.128,0.256 0.128,0.384 0.064,0.064 0.064,0.128 l -0.192,0.384 q -0.192,0.256 -0.192,0.384 l 0.448,1.088 h -0.064 q -0.384,0 -0.512,0.512 l -0.192,0.896 q -0.064,0.96 -0.192,0.96 0.128,0.064 0.32,0.128 0.192,0.064 0.32,0.192 0.192,1.024 0.064,2.112 -0.064,0.512 -0.128,0.896 0,0.384 0,0.64 l -0.448,0.256 0.128,0.192 q 0.32,0.064 0.32,0.064 l 0.192,-0.064 0.128,0.192 q -0.064,0.128 -0.256,0.384 -0.128,0.192 -0.384,0.512 0.256,0.064 0.512,-0.064 0.256,0.064 0.256,0.384 l -0.064,0.256 q -0.128,0.256 -0.128,0.32 l 0.128,1.344 -0.256,0.832 q 0.064,0.064 0.064,0.384 -0.32,0.96 -0.32,0.704 0.064,0.832 0.064,0.896 -0.128,0.128 -0.128,0.32 l -0.064,0.96 q -0.512,0.128 -0.512,1.024 -0.256,0.064 -0.768,0.576 -0.064,0.256 -0.256,0.576 -0.128,0.256 -0.384,0.704 l -0.768,0.448 v 0.32 h -0.192 q -0.448,0 -0.64,0.512 l -1.024,0.512 q -0.256,0 -0.96,0.192 -0.256,0.128 -0.704,0.256 -0.448,0.192 -0.96,0.384 h -0.064 q -0.064,0 -0.064,-0.064 0,0 -0.064,0 z m -6.4,-35.776 q 0,-0.128 0.064,-0.192 0,-0.064 -0.512,-0.768 -0.448,-0.512 -0.448,-0.832 -0.448,0.064 -0.448,0.32 v 0.768 q 0,0.384 0.576,0.512 z m 13.056,0.192 0.128,-0.064 h 0.128 q 0.064,-0.064 0.064,-0.448 -0.128,-0.512 -0.32,-0.512 -0.32,0.64 -0.32,0.512 0,0.192 0.32,0.512 z m -2.496,-0.64 q 0,-0.128 -0.128,-0.256 -0.064,-0.128 -0.256,0.064 0,0.192 0.384,0.192 z m 0.768,4.544 q 0.192,0.064 0.384,-0.256 -0.064,-0.064 -0.256,-0.064 -0.128,0 -0.128,0.32 z m -11.008,4.992 0.576,-0.32 q 0,-0.128 -0.256,-0.384 0,0 -0.128,-0.128 h -0.192 l -0.192,0.192 q 0.128,0.128 0.192,0.64 z m -1.856,6.208 q 0.064,-0.064 0.32,-0.192 -0.064,-0.064 -0.32,0 z m 14.656,0.448 q 0.128,0.064 0.256,-0.064 0.064,-0.064 -0.064,-0.32 -0.192,0.064 -0.192,0.384 z m -13.824,-0.064 q 0.192,0.064 0.384,-0.192 -0.064,-0.064 -0.192,-0.064 -0.192,0 -0.192,0.256 z m 3.776,1.152 v 0 q 0,-0.064 0,0 z m -1.088,1.344 q 0.192,0.064 0.384,-0.192 -0.192,-0.192 -0.32,-0.064 -0.128,0.128 -0.064,0.256 z m -1.984,0.448 h -0.256 l 0.256,0.32 z m 0.576,3.456 q 0.064,-0.064 0.064,-0.192 0,-0.192 -0.256,-0.192 -0.064,0.192 0.192,0.384 z m 9.6,1.088 0.128,-0.128 q 0.064,-0.064 0.064,0 0,0 0.064,-0.064 l -0.128,-0.192 z m -7.36,1.856 q 0,-0.128 -0.128,-0.256 -0.064,-0.128 -0.256,0.064 0,0.192 0.384,0.192 z m 7.68,2.176 q 0.32,0 0.896,-0.576 v -0.896 h -0.384 q -0.512,0 -1.088,1.024 0.256,0.448 0.576,0.448 z m -14.528,-1.216 0.064,0.064 q -0.064,0 -0.064,0 z m 18.624,2.816 q -0.064,0.128 -0.064,0.064 z m -3.584,0.32 q 0.064,-0.128 -0.064,-0.256 -0.064,-0.064 -0.32,0.064 0.128,0.192 0.384,0.192 z m -8.128,3.584 q 0,-0.128 -0.192,-0.192 l -0.128,0.064 q 0.064,0.064 0.128,0.064 0.128,0 0.192,0.064 z m 0.128,1.024 q 0,-0.128 -0.128,-0.256 -0.064,-0.128 -0.256,0.064 0,0.192 0.384,0.192 z m 17.60005,10.048 q -0.192,0 -0.64,-0.256 l -0.256,-4.928 q 0.192,-0.192 0.32,-1.216 l 0.128,-0.192 q 0.192,-0.192 0.192,-0.384 0,-0.256 -0.256,-0.256 l -0.256,-0.064 q -0.32,-0.448 -0.256,-0.96 0.128,-0.128 0.32,-0.192 0.192,-0.128 0.192,-0.192 l -0.384,-2.944 -0.256,-0.832 q 0.064,-0.128 0.064,-0.32 0,-0.192 0.064,-0.448 l 0.448,-0.064 v -0.192 q -0.32,0 -0.576,-0.256 0.064,-0.128 0.128,-0.256 0.064,-0.192 0.128,-0.448 l -0.32,-1.472 -0.192,-1.792 0.192,-0.512 0.128,-0.512 q -0.256,-0.256 -0.32,-0.64 l -0.064,-1.6 0.128,-0.256 q 0.128,-0.256 0.064,-0.32 -0.192,-0.384 -0.384,-0.96 v -0.64 q 0.064,-0.064 0.32,-0.128 0.128,-0.384 0.128,-0.576 -0.128,-0.192 -0.256,-0.448 l -0.064,-0.768 q -0.064,-0.32 -0.064,-0.512 0,-0.192 0,-0.32 0.064,-0.064 0.064,-0.448 0,0 -0.128,-0.192 0,-0.448 0.384,-1.088 0.512,-0.704 0.512,-0.832 0,-0.384 -0.448,-0.896 l -0.064,-0.064 h -0.192 q -0.064,-0.32 -0.128,-0.64 0,-0.32 -0.064,-0.576 -0.32,-0.576 -0.256,-0.768 l 0.064,-0.768 -0.064,-0.256 0.128,-0.576 -0.32,-0.768 q 0,-0.384 0.384,-0.576 0,-0.192 -0.256,-0.448 0.064,-0.128 0.064,-0.768 l -0.384,-1.664 q 0,-0.704 0.448,-0.704 l 0.32,0.064 q 0.064,0.256 0.896,0.384 l 0.448,0.448 q 0.384,0 0.448,-0.768 0.192,0.064 0.96,0.064 l 0.384,-0.064 0.256,0.448 h 0.192 q 0.064,0 0.448,-0.384 0.192,0.064 0.256,0.256 0.128,0.384 0.192,0.448 0.448,-0.32 0.32,-0.832 l 1.024,-0.064 q 0.384,0 0.448,0.384 0.128,0.384 0.64,0.384 0.512,-0.128 0.704,-0.512 0.128,-0.384 0.576,-0.384 h 0.448 q 0.256,0.064 0.448,0.064 0.128,-0.064 0.256,-0.128 0.192,-0.064 0.448,-0.128 l 0.768,0.128 q 0.128,-0.064 0.32,-0.128 0.192,-0.064 0.448,-0.128 0.192,0 0.704,0.32 0.064,0.448 0.32,0.448 0.064,0 0.128,-0.064 0,-0.064 0.128,-0.064 h 0.512 q -0.128,0 0.128,0.384 0.192,0.384 0.576,0.32 0.064,0.064 0.192,0.192 0.128,0.064 0.256,0.32 0.128,0.384 0.256,0.64 l 0.576,0.576 q 0.256,0.32 0.256,0.704 l -0.064,0.32 v 0.448 q -0.64,0.448 -0.64,0.64 0.128,0.32 0.256,0.256 l 0.192,-0.064 q 0.576,0 0.64,0.832 0,0.192 -0.256,0.448 v 1.088 q 0.128,0.128 0.192,0.32 0.064,0.128 0.192,0.32 -0.064,0.064 -0.256,0.448 v 0.32 q 0,0.32 0.192,0.64 l 0.064,0.832 0.128,0.96 -0.192,1.984 q 0,0.128 0.256,0.448 0.192,0.384 0.192,0.512 l -0.128,2.496 -0.064,-0.064 q -0.512,0 -0.512,0.448 0,0.384 0.384,0.384 l 0.128,-0.064 0.256,1.536 q 0,0 0,0 0,0 0,0 v 0 q 0,-0.064 -0.064,-0.064 0,0 -0.064,0.128 0,0.128 -0.064,0.448 0,0.064 0,0.128 0.064,0 0.064,0.064 0,0.256 -0.192,0.768 l 0.32,0.192 v 0.832 l 0.192,0.448 -0.192,0.256 q 0,0.256 0,0.704 0,0.384 -0.064,0.896 0,0 -0.192,0.32 -0.192,0.256 -0.192,0.32 0.064,0.064 0.192,0.32 0.128,0.192 0.128,0.32 -0.448,0.32 -0.704,0.768 -0.064,0.256 -0.192,0.64 -0.064,0.32 -0.256,0.832 -0.128,0.256 -0.64,0.512 -0.64,0.192 -0.704,0.64 l -0.32,-0.064 q -0.256,0.064 -0.64,0.192 -0.32,0.128 -0.704,0.256 -0.192,-0.128 -0.576,-0.192 -0.064,0 -0.384,0.32 -0.256,0.256 -0.32,0.256 -0.064,0 -0.192,-0.128 -0.128,-0.128 -0.192,-0.128 l -0.128,0.064 h -0.192 l -0.256,-0.128 q -0.256,-0.256 -0.32,-0.256 -0.384,-0.192 -1.024,-0.192 -0.32,-0.64 -1.216,-0.512 -0.064,-0.128 -0.512,0.32 l 0.576,1.216 q -0.128,0.064 -0.32,0.192 -0.128,0.128 -0.384,0.256 0,0.064 0.32,0.384 0,0.064 -0.064,0.128 0,0.064 0,0.192 0,0.448 0.512,1.088 l 0.256,3.968 q -0.064,0.064 -0.064,0.448 0,0.448 -0.064,1.152 v -0.064 q 0,0 -0.192,0.64 l -0.384,-0.128 q -0.064,0 -0.128,0.064 l -0.192,0.064 q -0.128,0 -0.384,-0.256 h -0.32 l -0.512,0.128 -0.448,0.128 q -0.064,0 -0.128,-0.064 -0.064,0 -0.192,-0.064 -0.32,-0.128 -0.384,-0.064 l -0.128,0.064 h -0.128 q -0.064,0 -0.448,-0.128 l -0.384,-0.192 q -0.064,0 -0.32,0.256 -0.256,0.256 -0.448,0.256 z m 10.56,-34.88 q 0.064,-0.128 -0.064,-0.256 -0.064,-0.064 -0.32,0.064 0.128,0.192 0.384,0.192 z m -7.744,1.92 q 0.064,-0.064 -0.128,-0.192 -0.128,0 -0.192,0.064 z m 2.688,19.456 0.256,-0.128 q 0.896,-0.512 1.408,-0.512 0.32,0 0.512,0.256 0.192,0.128 0.512,0 v -0.256 q 0.128,-0.896 0,-1.856 0.448,-0.256 0.448,-0.832 0,-0.448 -0.256,-0.896 -0.256,-0.448 -0.192,-0.512 0.192,-0.512 0.192,-0.576 l -0.384,-0.704 q 0,-1.984 -0.128,-2.112 0.128,-0.576 0.576,-0.576 l 0.32,0.192 0.32,-0.064 v -0.32 q -0.32,0 -0.384,-0.256 -0.064,-0.192 -0.256,-0.384 -0.256,-0.128 -0.384,-0.256 -0.064,-0.192 -0.192,-1.152 v -0.448 q 0,-0.896 0.192,-1.088 -0.064,-0.064 -0.192,-0.448 l -0.064,-1.984 q 0.064,-0.256 0.064,-0.64 0.064,-0.448 0,-0.96 l 0.128,-0.192 -0.192,-0.192 q 0,-0.128 -0.064,-0.256 0,-0.128 -0.064,-0.32 0.128,-0.576 -0.064,-0.832 l -1.344,-1.088 q 0.128,0.384 0,0.512 l -0.192,0.064 -0.192,-0.448 q -0.128,-0.064 -0.32,-0.064 -0.128,0 -0.384,-0.064 0.128,0.384 0.128,0.512 0,0.384 -0.32,0.704 h -0.192 q -0.64,0 -0.768,0.384 v 0.256 q 0,0.192 0,0.512 0,0.32 0.064,0.768 0.064,1.408 0.256,1.408 l 0.064,-0.064 q 0.064,0.064 0.192,0.064 0.128,0 0.256,0.064 -0.064,0.192 -0.064,0.512 0,0.256 0,0.64 l 0.192,1.088 q 0.064,0.064 -0.064,0.256 l -0.128,0.32 0.192,0.448 -0.064,0.576 0.128,0.896 0.192,0.384 q 0,0.064 -0.064,0.32 -0.064,0.256 -0.192,0.704 l 0.064,2.304 q 0.128,0.128 0.192,0.32 0.128,0.128 0.192,0.32 l -0.064,0.128 q -0.064,0.064 -0.064,0.192 -0.064,0.192 -0.064,0.576 0,0.384 0.128,0.896 l 0.128,0.512 q -0.064,0.128 -0.128,0.32 -0.064,0.192 -0.128,0.448 l -0.064,0.512 q 0,0.128 -0.128,0.256 0,0.128 0.128,0.384 0,0.064 -0.064,0.064 -0.064,0 -0.064,0.128 0,0.128 0.128,0.128 l -0.064,0.192 q 0,0.128 0,0.32 0,0.128 0.064,0.384 0.064,0.256 0.32,0.256 z m -2.56,-18.432 q 0.064,-0.128 -0.064,-0.256 -0.064,-0.064 -0.32,0.064 0.128,0.192 0.384,0.192 z m 11.392,2.048 v -0.064 z m -1.6,9.792 0.256,-0.128 -0.128,-0.192 q -0.064,0.064 -0.064,0.128 0,0.064 -0.064,0.192 z m -2.368,2.176 q 0.128,0 0.256,-0.128 0.064,-0.064 -0.064,-0.256 -0.192,0.064 -0.192,0.384 z m 3.328,3.84 q 0,-0.192 -0.128,-0.32 -0.128,-0.128 -0.256,0.128 0.128,0.192 0.384,0.192 z m -12.544,3.712 q 0.256,-0.256 0.192,-0.32 v 0 q 0,0 0,0 l 0.256,0.128 q 0.192,0 0.32,-0.32 -0.32,-0.512 -0.896,-0.512 -0.384,0 -0.384,0.512 l 0.192,0.512 z m -0.768,1.344 q 0.064,-0.128 -0.064,-0.256 -0.064,-0.064 -0.32,0.064 0.128,0.192 0.384,0.192 z m 19.07206,-23.104 -0.192,-0.064 q -0.512,-1.536 -0.512,-3.52 l 0.192,-0.384 q 0.128,-0.384 0.128,-0.576 l -0.256,-0.768 q -0.256,-0.576 -0.256,-0.704 0,-0.064 0.704,-0.768 -0.512,-0.64 -0.512,-1.216 l 0.064,-0.64 q 0.064,-0.32 0.064,-0.448 0,-0.128 0,-0.192 l -0.064,-0.512 -0.128,-0.512 q 0,-0.064 0.128,-0.32 0.064,-0.128 0.064,-0.32 l -0.064,-0.256 q -0.064,-0.128 -0.064,-0.256 l 0.064,-0.384 v -0.448 q 0.256,-0.064 0.256,-0.384 l -0.064,-0.256 q -0.064,-0.064 -0.064,-0.256 l 0.064,-0.384 v -0.32 q 0,-0.32 -0.192,-0.384 -0.192,-0.128 -0.192,-0.192 0,-0.704 0.64,-0.704 0.384,0 0.704,0 0.32,0 0.64,-0.064 l 0.64,0.064 0.512,0.128 q 0.704,0 0.704,0.512 v 0.448 q 0,0.064 -0.064,0.128 l -0.064,0.192 q 0,0.064 0.128,0.32 l 0.064,0.32 q 0,0.064 -0.192,0.384 -0.256,0.256 -0.256,0.576 0,0.064 0.064,0.192 0.064,0.128 0.064,0.128 0.064,0.32 0.064,0.576 0.064,0.256 0.064,0.384 0,0.064 -0.128,0.192 -0.128,0.128 -0.128,0.192 0,0.064 0.128,0.192 0.128,0.256 0.128,0.32 0,0 -0.192,0.32 h -0.384 l 0.576,0.768 q 0,0.192 -0.064,0.448 l -0.128,0.512 q 0,0.128 0.064,0.192 l 0.064,0.192 q 0.064,0.128 0.064,0.448 0,0.256 0.064,0.64 l 0.064,0.768 q 0,0.064 0,0.256 0,0.128 -0.064,0.448 l -0.128,0.64 q 0,0 0.128,0.384 l 0.128,0.448 -0.128,0.576 -0.128,1.344 q 0.064,0.128 0.064,0.32 0,0.448 -0.448,0.704 -0.32,0.32 -0.512,0.192 l -0.192,-0.192 q -0.256,0.128 -0.832,0.128 -0.448,0.448 -0.896,0.448 z m 1.216,-13.056 q 0.064,-0.064 0.064,-0.256 0,-0.192 -0.064,-0.256 h -0.448 v 0.512 z m 0,0.64 q 0.064,-0.064 0.32,-0.064 l -0.064,-0.128 q 0,-0.064 -0.064,-0.128 -0.256,0.064 -0.192,0.32 z m 0.192,9.344 q 0.192,-0.512 0.448,-0.512 h 0.256 v -0.256 q 0,-0.384 -0.576,-0.384 l -0.192,0.256 q -0.192,0.192 -0.512,0.32 v 0.192 l 0.384,0.384 z m 6.97594,26.176 q -0.32,0.064 -0.448,-0.256 -0.064,-0.512 -0.256,-0.64 0.192,-0.128 0.32,-0.32 v -0.32 q 0.064,-0.32 0.128,-0.384 -0.128,-0.128 -0.256,-0.256 -0.064,-0.128 -0.192,-0.32 v -0.832 q 0,-0.448 0.192,-0.64 -0.064,-0.128 -0.064,-0.384 0,-0.256 -0.064,-0.576 l -0.064,-0.64 -0.128,0.064 q 0,0.064 -0.064,0.064 0,0 -0.064,0 0,0 0,-0.064 0,-0.384 0.192,-0.576 v -0.32 q 0,-0.576 0,-0.896 0.064,-0.32 0.064,-0.384 l -0.064,-0.192 q -0.064,-0.128 -0.064,-0.32 0.192,-0.32 0.192,-1.408 v -0.192 q 0,-0.128 0,-0.384 0,-0.256 0.064,-0.64 0.128,-1.088 0.064,-1.088 -0.064,-0.128 -0.192,-0.32 -0.064,-0.256 -0.192,-0.512 l -0.064,-0.512 q 0.512,-0.384 0.384,-1.28 l -0.32,-0.576 q 0,-0.128 0,-0.384 0,-0.256 -0.064,-0.576 -0.064,-0.064 -0.192,-0.512 -0.064,-0.064 0.128,-0.512 l 0.128,-0.512 -0.128,-0.896 q -0.064,-0.384 -0.128,-0.576 -0.064,-0.256 -0.064,-0.32 0,0 0,-0.512 v -0.064 l 0.128,-0.256 h 0.064 l 0.192,-0.128 q -0.064,-0.064 -0.064,-0.128 l 0.128,-0.32 0.128,-0.192 q 0,-0.064 -0.064,-0.064 -0.192,0 -0.32,0.128 0.128,-0.384 0.192,-1.216 0.448,0 0.448,-0.448 0,-0.32 -0.256,-0.32 -0.128,0 -0.32,0.192 -0.064,-0.256 -0.192,-0.512 -0.064,-0.32 -0.128,-0.64 l 0.064,-0.192 v -0.128 q -0.064,-0.192 -0.064,-0.448 0,-0.32 0,-0.64 0.064,-0.256 0.448,-0.704 0,0 -0.384,-0.128 v -0.448 q 0,-0.256 0,-0.448 0,-0.256 -0.064,-0.512 l -0.192,-0.512 q 0,-0.064 0.192,-0.448 0.192,-0.384 0.192,-0.512 -0.128,-0.064 0.832,-0.064 0.192,0 0.256,0.256 0.064,0.256 0.384,0.256 0.128,0 0.32,-0.192 l 0.768,-0.064 q 0.064,0 0.128,0.128 0.128,0.128 0.576,0.448 0.192,0 0.256,-0.448 l 0.064,-0.128 q 0,-0.064 0.128,-0.064 l 0.192,0.064 q 0.128,0 0.128,0 l 0.448,-0.128 q 0.128,-0.064 0.256,-0.064 0.128,0 0.192,0 l 0.32,0.128 q 0.256,0.128 0.256,0.128 0.256,0 0.576,-0.512 0.384,0.32 0.448,1.024 0.064,0.64 0.384,0.832 -0.192,0.064 -0.448,0.448 v 0.384 q -0.256,0.448 -0.256,0.448 0,0.192 0.256,0.448 0.064,0 0.128,0 0.128,-0.064 0.192,-0.064 0.32,0 0.896,0.192 0.256,-0.064 0.256,-0.256 -0.128,-0.704 -0.192,-0.704 l 0.064,-0.32 0.192,-0.384 q 0,-0.256 0.256,-0.704 0.256,-0.256 0.768,-0.256 0.256,-0.064 0.32,-0.448 l 0.192,0.064 q 0.192,0 0.384,-0.32 0.192,-0.32 0.384,-0.32 0.32,0 0.704,0.384 0.128,-0.384 0.384,-0.704 -0.064,-0.064 -0.064,-0.064 h 0.064 v 0.064 q 0.064,0.064 0.96,0.384 0.192,0.064 0.448,0.128 0.256,0 0.512,0 1.024,0 1.216,0.256 l 0.256,0.448 q 1.088,1.088 1.344,2.176 v 0.256 q 0,0.128 0,0.32 0,0.192 -0.064,0.384 l 0.192,0.448 q 0,0.64 0,1.088 0,0.384 -0.064,0.512 l -0.576,0.576 q 0.128,0.256 0.384,0.32 l 0.384,-0.064 v 0.064 q 0,0.064 -0.064,0.192 0,0.128 -0.064,0.32 0.064,-0.064 0.128,0.32 -0.128,0.192 0,1.088 0,0.512 -0.192,1.792 -0.192,0.448 -0.192,1.408 0,0.128 0.32,0.32 0.192,0.128 0.32,1.664 l -0.384,0.192 0.384,1.6 q -0.064,0.192 -0.128,0.448 -0.064,0.256 -0.128,0.576 l 0.256,1.152 q 0.128,0.576 0.128,0.896 0.064,0.256 0.064,0.32 0,0.256 -0.256,0.576 0,0 -0.192,0.128 -0.192,0.064 -0.192,0.128 0,0.064 0.192,0.192 0.128,0.128 0.128,0.32 0,0.128 -0.128,0.512 0.384,0.192 0.384,0.576 -0.192,0.64 -0.192,1.728 -0.128,-0.064 -0.384,-0.064 -0.384,0 -0.384,0.512 0,1.088 0.832,1.152 l -0.256,0.704 0.64,0.384 -0.128,0.704 -0.128,0.768 q 0.128,0.384 0.128,0.512 0,0.512 -0.64,0.704 l -0.448,-0.384 q -0.192,-0.064 -0.576,-0.064 l -0.256,0.128 q -0.128,0.064 -0.192,0.064 -0.064,0.064 -0.128,0.064 l -1.024,-0.064 -1.024,-0.128 -0.384,0.128 -0.448,0.128 h -0.32 q -0.256,0 -0.512,-0.064 -0.256,0 -0.576,-0.064 -0.064,0 -0.064,-0.192 l 0.192,-0.384 q 0.128,-0.384 0.128,-0.384 -0.192,-0.192 -0.256,-0.512 -0.064,-0.064 -0.32,0 v -0.448 l 0.128,-0.256 q 0.064,-0.128 0.064,-0.256 0,-0.256 0,-0.64 0.064,-0.448 0.128,-1.088 0.64,-0.832 0.64,-1.088 0,-0.192 -0.256,-0.256 -0.448,-0.192 0.064,-0.512 -0.064,-0.064 -0.192,-0.192 -0.064,-0.128 -0.32,-0.256 l -0.064,-2.304 q -0.128,0 -0.128,-0.128 v -1.408 q 0,-1.216 0.064,-1.344 l 0.32,-0.32 q 0.256,-0.256 0.256,-0.384 l -0.704,-0.448 q 0,-0.384 -0.064,-0.64 l 0.32,-2.24 q -0.128,-0.128 -0.32,-0.64 l -0.192,-1.024 q 0,-0.128 0.256,-0.384 0.32,-0.32 0.192,-0.384 l -0.192,-0.768 q -0.192,-0.576 -0.192,-0.704 0,-0.384 0.448,-0.768 v -0.448 q -0.128,-0.128 -0.576,-0.128 l 0.064,-0.832 v -0.192 q 0,-0.832 -0.576,-0.704 -0.064,0 -0.512,0.32 -0.512,0.32 -0.512,0.32 -0.192,-0.128 -0.576,-0.192 -0.32,0 -0.256,0.768 -0.128,0.128 -0.32,0.32 -0.128,0.192 -0.32,0.448 l -0.064,1.216 q 0,0.128 -0.064,0.256 l -0.128,0.256 q 0,0.32 0.064,0.512 0.128,0.128 0.192,0.256 0,0.064 -0.128,0.32 -0.128,0.256 -0.128,0.32 l 0.192,0.256 q 0.192,0.192 0.128,0.576 l -0.192,0.256 v 0.32 q 0,0.256 0.192,0.576 0.192,0.256 0.192,0.32 l 0.064,2.56 -0.128,0.448 q -0.192,0.384 -0.192,0.64 0,0.192 0.192,0.512 -0.064,0.128 -0.064,0.576 l 0.192,0.448 q 0,0 -0.128,0.768 -0.064,0.704 -0.064,1.024 l 0.064,1.664 q 0.128,0 0.128,0.128 l 0.064,2.304 q 0,0 -0.512,0.64 -0.064,0.064 0.128,0.192 0.448,0.128 0.512,0.192 v 0.128 q 0,0.192 -0.192,0.896 0.064,0.192 0.064,0.96 -0.128,0.64 -0.576,0.704 0.128,0.064 0.32,0.256 0.192,0.128 0.384,0.384 0.064,0.256 -0.256,0.256 h -0.64 q -0.064,0.064 -0.32,-0.128 -0.192,-0.256 -0.512,-0.128 l -0.768,0.192 -0.64,-0.128 -0.768,-0.192 q -0.064,0 -0.192,0.064 -0.064,0.064 -0.256,0.128 l -0.448,0.128 q -0.128,0 -0.64,-0.384 -0.256,0.128 -0.32,0.384 -0.064,0.256 -0.384,0.256 z m 13.184,-26.432 0.448,-0.576 -0.32,0.192 h -0.32 q 0,0.256 0.192,0.384 z m -9.536,0.96 q 0.064,-0.064 -0.192,-0.256 l -0.128,0.128 q 0.064,0.064 0.128,0.064 0.128,0 0.192,0.064 z m 0.128,0.96 q 0,-0.128 -0.128,-0.256 -0.064,-0.128 -0.256,0.064 0,0.192 0.384,0.192 z m 6.784,1.536 0.576,-0.064 q 0.256,-0.064 0.512,-0.32 0.256,-0.256 0.256,-0.512 -0.064,-0.64 -0.576,-0.64 -0.256,0 -0.64,0.448 -0.384,0.384 -0.384,0.704 0,0.128 0.256,0.384 z m -7.936,3.904 0.192,-0.192 q 0,0 -0.128,-0.128 z m 8.32,8.768 q 0.128,0 0.256,-0.128 0.128,-0.128 -0.064,-0.256 -0.192,0 -0.192,0.384 z m 3.264,3.84 q 0,-0.128 -0.128,-0.256 -0.064,-0.128 -0.256,0.064 0,0.192 0.384,0.192 z m -12.352,2.368 q 0,-0.256 0,-0.512 0.064,-0.256 0.128,-0.512 -0.448,-0.448 -0.832,-0.384 l -0.256,0.128 0.192,0.64 z m -1.088,2.496 q 0.064,-0.128 -0.064,-0.256 -0.064,-0.064 -0.32,0.064 0.128,0.192 0.384,0.192 z m 19.45597,-21.504 -0.192,-0.064 q -0.512,-1.536 -0.512,-3.52 l 0.192,-0.384 q 0.128,-0.384 0.128,-0.576 l -0.256,-0.768 q -0.256,-0.576 -0.256,-0.704 0,-0.064 0.704,-0.768 -0.512,-0.64 -0.512,-1.216 l 0.064,-0.64 q 0.064,-0.32 0.064,-0.448 0,-0.128 0,-0.192 l -0.064,-0.512 -0.128,-0.512 q 0,-0.064 0.128,-0.32 0.064,-0.128 0.064,-0.32 l -0.064,-0.256 q -0.064,-0.128 -0.064,-0.256 l 0.064,-0.384 v -0.448 q 0.256,-0.064 0.256,-0.384 l -0.064,-0.256 q -0.064,-0.064 -0.064,-0.256 l 0.064,-0.384 v -0.32 q 0,-0.32 -0.192,-0.384 -0.192,-0.128 -0.192,-0.192 0,-0.704 0.64,-0.704 0.384,0 0.704,0 0.32,0 0.64,-0.064 l 0.64,0.064 0.512,0.128 q 0.704,0 0.704,0.512 v 0.448 q 0,0.064 -0.064,0.128 l -0.064,0.192 q 0,0.064 0.128,0.32 l 0.064,0.32 q 0,0.064 -0.192,0.384 -0.256,0.256 -0.256,0.576 0,0.064 0.064,0.192 0.064,0.128 0.064,0.128 0.064,0.32 0.064,0.576 0.064,0.256 0.064,0.384 0,0.064 -0.128,0.192 -0.128,0.128 -0.128,0.192 0,0.064 0.128,0.192 0.128,0.256 0.128,0.32 0,0 -0.192,0.32 h -0.384 l 0.576,0.768 q 0,0.192 -0.064,0.448 l -0.128,0.512 q 0,0.128 0.064,0.192 l 0.064,0.192 q 0.064,0.128 0.064,0.448 0,0.256 0.064,0.64 l 0.064,0.768 q 0,0.064 0,0.256 0,0.128 -0.064,0.448 l -0.128,0.64 q 0,0 0.128,0.384 l 0.128,0.448 -0.128,0.576 -0.128,1.344 q 0.064,0.128 0.064,0.32 0,0.448 -0.448,0.704 -0.32,0.32 -0.512,0.192 l -0.192,-0.192 q -0.256,0.128 -0.832,0.128 -0.448,0.448 -0.896,0.448 z m 1.216,-13.056 q 0.064,-0.064 0.064,-0.256 0,-0.192 -0.064,-0.256 h -0.448 v 0.512 z m 0,0.64 q 0.064,-0.064 0.32,-0.064 l -0.064,-0.128 q 0,-0.064 -0.064,-0.128 -0.256,0.064 -0.192,0.32 z m 0.192,9.344 q 0.192,-0.512 0.448,-0.512 h 0.256 v -0.256 q 0,-0.384 -0.576,-0.384 l -0.192,0.256 q -0.192,0.192 -0.512,0.32 v 0.192 l 0.384,0.384 z m 14.59194,26.176 q -0.064,0 -0.128,-0.064 0,-0.576 -0.192,-1.024 -0.128,0 -0.512,0.384 -0.448,0.384 -0.576,0.384 l -1.664,-0.448 q -0.064,0.064 -0.32,0.064 l -1.28,-0.576 q -0.064,0 -0.256,0 -0.128,-0.064 -0.32,-0.128 l -0.768,-0.448 h -0.064 l -0.192,0.064 q -0.192,-0.256 -0.704,-0.576 l -0.256,-0.896 q -0.32,-0.192 -0.448,-0.384 l -0.192,-0.64 q -0.192,-0.128 -0.384,-0.256 -0.192,-0.192 -0.448,-0.448 -0.064,-0.128 -0.128,-0.32 -0.064,-0.192 -0.192,-0.448 v -0.384 q -0.064,-0.128 -0.128,-0.192 -0.064,-0.128 -0.192,-0.256 -0.256,-0.448 -0.192,-1.088 l 0.384,-1.152 q 0,0 -0.128,-0.256 l -0.192,-0.32 q -0.064,-0.192 -0.064,-0.512 0.064,-1.152 0.192,-0.832 0,0 -0.128,-0.256 -0.192,-0.192 -0.192,-0.32 0.128,-0.704 0.256,-0.96 0.128,-0.128 0.384,-0.512 l -0.128,-0.448 q -0.064,-0.32 -0.064,-0.32 l 0.32,-0.512 -0.192,-0.256 q 0.064,-0.064 0.064,-0.384 l -0.128,-0.96 0.32,-0.576 q 0.064,-0.192 -0.064,-0.512 0,-0.064 0.064,-0.064 0.064,0 0.064,-0.128 0,0 0.064,-0.704 l -0.192,-1.92 q 0.512,-0.128 0.512,-0.384 l -0.192,-0.64 q 0.32,-0.128 0.64,-0.384 0.32,-0.256 0.704,-0.512 0,-0.448 -0.384,-0.512 -0.256,0 -0.32,0.256 l -0.128,0.384 q -0.64,-0.32 -0.512,-0.832 l 0.192,-0.384 v -0.384 l 0.384,-0.384 q 0,0.128 0,0.064 0,-0.064 0.064,-0.32 l -0.064,-0.512 q -0.064,-0.192 -0.064,-0.32 0,-0.128 0,-0.192 l 0.256,-0.768 q 0.128,-0.32 0.128,-0.768 0,-0.448 0,-0.896 l 0.128,-0.384 q 0,-0.256 0,-0.576 0,-0.32 -0.064,-0.64 0.128,-0.64 0.32,-0.832 0.256,-0.256 0.256,-0.512 l -0.064,-0.32 q 0,-0.128 -0.064,-0.128 -0.064,-0.064 -0.064,-0.128 l 0.192,-0.832 q 0.064,0 0.192,-0.128 -0.256,-0.64 -0.192,-1.216 0.064,-0.128 0.128,-0.256 0.064,-0.128 0.128,-0.32 l 0.064,-0.576 0.64,-0.512 0.32,0.064 -0.448,0.32 q 0.064,0.064 0.128,0.32 h 0.192 l 0.192,-0.192 v -0.448 q 0.256,-0.128 0.512,-0.448 -0.192,-0.448 -0.448,-0.512 l -0.128,0.128 -0.384,-0.064 v -0.192 q 0,-0.384 0.96,-1.152 0.064,-0.064 0.064,-0.384 l 0.512,-0.384 q 0.064,-0.128 0.448,-0.512 l 1.216,-0.896 q 0.064,0.064 0.448,0.192 -0.128,-0.064 0.64,-0.448 0.128,-0.064 0.32,-0.064 0.256,-0.064 0.576,0 0,0 0.384,0.128 0.384,0 0.384,-0.32 0,-0.32 0.256,-0.32 0.32,0.128 0.32,0.192 v 0.384 l 0.256,-0.256 q 0.192,-0.32 0.192,-0.448 v -0.128 q 0,0 0.704,0.128 l 0.384,0.064 q 0.512,-0.128 0.32,-0.192 0.256,0.128 0.512,0.256 0.32,0.064 0.576,0.192 0.064,0.064 0.384,-0.064 l 0.448,-0.128 0.896,-0.064 1.792,1.024 0.64,-0.128 q 0.32,0.064 0.32,0.128 0.064,0.128 0.064,0.448 l 0.384,0.576 0.064,0.448 q 0.064,0.192 0.448,0.32 0.128,0 0.384,-0.192 0.128,0.192 0.256,0.384 0.128,0.192 0.192,0.384 l 0.512,0.384 0.192,0.704 v 0.064 q 0,0.384 0.256,0.704 l 0.448,0.064 q 0.128,0.128 0.128,0.32 0,0.256 -0.192,0.768 l -0.128,0.384 q 0.448,1.152 0.448,1.408 0.192,0.192 0.192,0.256 l 0.064,0.32 q 0,0.064 0,0.192 0.064,0.064 0.064,0.128 -0.256,0.128 -0.448,0.32 -0.192,0.192 -0.448,0.448 0.448,0.448 0.448,0.96 -0.064,0.128 -0.384,0.704 l 0.32,1.088 q 0,0.064 -0.192,0.256 -0.192,0.192 -0.192,0.256 0.128,0.256 0.192,0.576 0.064,0.32 0.128,0.64 -0.128,0.704 -0.64,0.64 l -1.536,-0.384 h -1.216 q -0.128,-0.128 -0.448,0 l -0.448,0.128 q -0.128,0 -0.448,-0.192 l -0.448,-0.128 h -1.344 q -0.128,0 -0.576,-0.32 0.128,-0.192 0.192,-0.448 0.064,-0.256 0,-0.512 l -0.064,-0.32 q 0,-0.128 -0.064,-0.128 0,-0.064 0,-0.128 l 0.96,-3.584 -0.128,-0.768 q -0.064,0.064 -0.192,0.064 -0.32,0 -0.256,-0.64 l 0.064,-0.704 q -0.384,-0.768 -0.64,-0.832 0,0 -0.32,0.192 -0.128,0.128 -0.384,0.064 l -1.152,-0.448 q -0.128,0 -0.32,0 -0.192,0 -0.512,0.064 -0.256,0.064 -0.384,0.384 l -0.128,0.448 q -0.256,0.064 -0.576,0.512 -0.064,0.064 -0.128,0.256 -0.064,0.128 -0.192,0.32 l 0.064,0.32 q -0.064,0.256 -0.128,0.576 0,0.256 -0.128,0.64 l -0.256,0.512 q 0,0.064 0.064,0.384 -0.064,0.256 -0.192,1.152 -0.064,0.128 0.064,0.576 l 0.128,0.64 q -0.384,0.064 -0.384,0.32 0,0.064 0.064,0.192 0.064,0.128 0.128,0.32 l 0.128,0.448 q -0.064,0.064 -0.448,0.704 -0.32,0.64 -0.32,0.704 l 0.192,0.448 q 0.192,0.512 0.128,0.96 -0.064,0.256 -0.832,0.512 0.256,0.128 0.448,0.32 0,0.128 -0.064,0.576 -0.064,0.384 -0.192,1.088 0.128,0.384 0.128,0.896 0,0.064 -0.064,0.256 -0.064,0.128 -0.192,0.384 l -0.256,0.576 q -0.064,0.448 0,0.704 0.192,1.024 0.256,0.768 -0.192,0.448 -0.384,1.472 0.064,0.32 0.064,0.32 l -0.192,1.344 q -0.064,0 -0.192,0.192 l 0.256,0.448 q 0.192,0.384 0.192,0.448 0,0 -0.32,0.448 -0.32,0.512 -0.32,0.512 0,0.256 0.192,0.256 h -0.128 q 0,0.256 -0.064,0.512 0,0.256 -0.064,0.576 -0.064,0.256 -0.064,0.64 0,0.32 0,0.704 -0.064,0.192 -0.064,0.704 l 0.704,0.512 v 0.512 q 0,0.064 0.384,0.192 0.064,0.64 0.512,0.768 l 0.448,-0.128 q 0.384,-0.128 0.384,-0.128 h 1.664 q 0.128,-0.256 0.256,-0.512 0.192,-0.32 0.448,-0.576 l 0.448,-0.512 q 0.192,-0.192 0.512,-0.256 v -0.064 q 0,-0.128 -0.128,-0.128 l -0.32,-0.064 q 0,-0.192 0.256,-0.448 -0.32,-0.64 -0.256,-0.768 0.128,-0.256 0.192,-0.576 0.128,-0.32 0.192,-0.64 l -0.064,-0.32 v -0.32 q 0,-0.192 0,-0.448 0,-0.32 0.064,-0.704 0,-0.064 -0.128,-0.32 v -0.832 q 0,-0.448 0.448,-1.216 0.32,0 0.832,0.064 0.576,0 1.216,0.064 l 0.896,0.256 q 0.384,0.064 0.576,0.192 0.256,0.128 0.32,0.128 l 0.448,-0.128 q 0.32,-0.128 0.448,0 0.064,0 0.576,0.128 0.576,0.064 0.64,0.128 h 0.832 l 0.128,0.192 -0.384,0.64 q 0,0.064 0,0.192 0,0.128 -0.064,0.384 0.32,0.448 0.32,0.448 l -0.704,0.896 -0.64,-0.384 0.32,0.384 -0.064,0.32 h -0.32 q 0.32,0.32 0.448,0.384 -0.512,0.256 -0.64,0.832 0,0.32 0.128,0.32 l 0.384,-0.128 q 0.576,0.704 0.512,0.896 0,0.128 -0.384,0.448 l 0.192,0.448 q 0,0.128 -0.064,0.192 l -0.128,0.192 q 0,0.384 0,0.704 0,0.256 -0.064,0.448 l -0.448,0.448 q 0,0.128 0,0.32 0,0.128 -0.064,0.384 -0.064,0.128 -0.32,0.512 -0.192,0.32 -0.512,0.832 -0.064,0.064 -0.192,0.128 -0.064,0.064 -0.192,0.192 v 0.32 q -0.128,0.192 -0.384,0.384 -0.192,0.192 -0.448,0.448 l -0.32,0.128 q -0.192,0.128 -0.128,0.32 -0.064,0.064 -0.32,0.064 l -0.384,0.384 q 0,0 -0.384,0.128 -0.128,0.128 -0.384,0.384 -0.192,0.192 -0.512,0.448 -0.32,0.192 -0.64,0.256 -0.32,0.128 -0.64,0.064 l -0.192,-0.064 q -0.064,0 -0.32,0.064 -0.256,0.064 -0.768,0.192 z m 9.088,-37.12 q 0,-0.192 0.064,-0.256 0,0 0.064,0.064 v 0.192 z m -9.792,0.576 q 0,-0.064 0.128,-0.192 l 0.128,-0.064 q -0.064,-0.064 -0.32,0 z m 0.832,0.32 q 0.192,0.128 0.32,-0.256 -0.128,-0.128 -0.256,0 -0.128,0.128 -0.064,0.256 z m -1.92,0.896 q 0.128,0.064 0.448,-0.128 -0.256,-0.448 -0.704,-0.192 0.128,0.256 0.256,0.32 z m -2.56,3.776 q 0.128,-0.064 0.256,-0.064 -0.128,-0.064 -0.32,-0.128 -0.128,-0.064 -0.32,-0.192 0,-0.32 0.064,-0.384 -0.064,-0.192 -0.512,-0.512 -0.256,-0.064 -0.256,0.32 -0.064,0.448 -0.192,0.576 0.704,0.384 0.96,0.384 z m 1.664,0.064 q 0.064,-0.064 0.256,-0.128 0.256,-0.128 0.576,-0.32 -0.192,-0.064 -0.32,-0.128 -0.128,-0.064 -0.256,-0.128 l -0.32,-0.384 q 0,0.064 0,0.256 0.064,0.128 0.064,0.256 z m 12.096,1.28 q 0.064,-0.064 -0.128,-0.32 -0.064,0 -0.192,0.128 l 0.192,0.064 q 0.064,0 0.064,0.064 z m -2.048,0.896 q 0.128,-0.256 0.128,-0.32 0,-0.256 -0.256,-0.448 l -0.192,0.384 q 0,0.192 0.32,0.384 z m -0.896,2.304 0.128,-0.64 -0.256,0.128 z m 1.408,-0.064 q 0.064,-0.128 -0.064,-0.256 -0.064,-0.064 -0.256,0 0,0.256 0.32,0.256 z m -12.736,12.48 q 0.192,0 0.256,-0.384 -0.192,-0.064 -0.32,0.064 -0.064,0.064 0.064,0.32 z m -0.768,2.048 0.512,-0.064 h 0.512 l 0.128,-0.512 -0.64,-0.064 q -0.512,0.384 -0.512,0.64 z m 12.736,0.512 q 0.32,-0.32 0.192,-0.448 l -0.576,-0.064 q -0.064,0.448 0,0.448 z m -0.064,0.64 0.128,-0.064 h 0.192 v -0.128 q 0,-0.064 -0.064,-0.064 0,0 0,-0.064 -0.256,0.064 -0.256,0.32 z m 1.728,0.448 z m -5.248,3.84 q 0.128,-0.064 0.256,-0.384 -0.128,-0.064 -0.256,0.064 -0.128,0.128 0,0.32 z m -4.032,2.304 q 0.064,-0.128 -0.064,-0.256 -0.128,-0.128 -0.256,0 0,0.128 0.32,0.256 z m 20.67206,5.312 q -0.064,-0.128 -0.192,-0.256 -0.128,-0.064 -0.256,-0.192 -0.384,-0.256 -0.832,-0.384 -0.064,0.064 -0.384,0.192 l -0.448,-0.192 q -0.384,-0.192 -0.512,-0.192 l -0.576,0.128 q -0.192,0 -0.896,-0.576 -0.32,-0.32 -0.576,-0.576 -0.192,-0.256 -0.256,-0.448 0,-0.064 -0.128,-0.064 l -0.256,0.064 q -0.128,0 -0.256,-0.192 -0.064,-0.128 -0.128,-0.32 -0.064,-0.256 -0.192,-0.512 -0.064,-0.128 -0.576,-0.448 -0.064,0 -0.192,-0.384 -0.256,-0.064 -0.256,-0.256 l 0.192,-0.32 q 0.128,-0.192 0.128,-0.448 0,-0.32 -0.256,-0.576 -0.32,-0.448 -0.32,-0.704 0.128,-0.128 0.192,-0.32 0.064,-0.256 0.192,-0.512 0,0 -0.256,-0.448 -0.448,-0.704 -0.384,-1.152 0,-0.064 0.512,-0.576 l -0.384,-0.32 q 0,0 0,0 0,-0.064 -0.064,-0.128 v -0.64 q 0,-0.128 0,-0.256 0,-0.128 0.064,-0.32 l 0.32,-0.384 q -0.128,-0.384 0,-0.704 0.064,-0.064 0.128,-0.128 0.064,-0.064 0.128,-0.128 -0.064,-0.064 -0.32,-0.064 l -0.128,-1.024 v -0.192 q 0,-0.768 0.384,-0.64 l 0.448,0.064 0.128,-0.064 q -0.064,-0.256 -0.512,-0.384 -0.32,-0.128 -0.32,-0.256 l 0.256,-1.6 q 0.128,0 0.192,-0.256 l -0.128,-0.448 q -0.128,-0.576 -0.192,-0.64 0.128,-0.128 0.32,-0.256 0.192,-0.128 0.32,-0.384 0,-0.064 -0.384,-0.704 -0.192,-0.32 -0.192,-0.768 0.128,-0.128 0.192,-0.384 0.128,-0.256 0.256,-0.576 0,-0.448 0,-0.96 0.064,-0.576 0.128,-1.28 0.192,-0.192 0.256,-0.384 0.192,-1.152 0.128,-1.6 0.256,0.064 0.448,-0.128 l 0.064,-0.512 q 0.384,-0.128 0.384,-0.448 0.128,-0.576 0.128,-0.576 1.024,-1.216 1.28,-1.216 h 0.064 v 0.064 h 0.128 q 0.128,0 0.192,-0.256 l 0.704,-0.256 q 1.024,0.832 1.024,0.512 v -0.384 q 0,-0.128 -0.064,-0.256 0,-0.128 0,-0.192 v -0.256 q 0.768,-0.576 0.896,-0.576 l 0.384,0.128 0.704,-0.128 q 0.512,0.704 0.768,0.704 0.192,0 0.448,-0.256 0.32,-0.384 0.384,-0.384 l 0.512,-0.384 q 0,0.256 0.256,0.512 l 0.448,-0.32 q 0.064,0.256 0.512,0.576 l 0.256,-0.064 h 0.256 l 0.256,-0.192 q 0.128,0.064 0.384,0.128 0.256,0.064 0.512,0.128 0.192,0.64 1.088,0.768 l 0.128,0.256 q 0.064,-0.064 0.384,-0.064 0.192,0 0.192,0.128 l 0.512,1.088 q 0.128,-0.128 0.256,-0.128 0.32,0 0.384,0.384 l 0.192,0.832 0.448,0.256 q 0.128,0.128 0.192,0.896 0.064,0.128 0.128,0.32 0.064,0.128 0.128,0.384 -0.064,0.192 -0.064,0.96 l 0.32,0.384 q 0.32,0.256 0.256,0.576 l -0.064,0.384 q -0.064,0.064 -0.256,0.128 -0.128,0.064 -0.256,0.192 -0.192,0.192 -0.448,0.128 -0.064,0.064 -0.064,0.256 0.384,0.384 0.768,0.512 l -0.128,0.576 q 0,0 -0.256,0.128 -0.192,0.192 -0.32,0.192 -0.32,0.32 -0.32,0.576 0,0.384 0.832,0.64 l 0.128,0.448 q -0.064,0.064 -0.192,0.512 v 0.256 q 0,0.192 0,0.448 0,0.192 0.064,0.512 l -0.512,0.256 q 0.064,0.064 0.128,0.256 0.064,0.192 0.192,0.448 0.256,0.32 0.256,0.448 l -0.128,0.96 q -0.128,-0.128 -0.384,-0.128 h -0.192 l -0.128,0.256 q 0,0 0.32,0.448 0.32,0.448 0.32,0.512 0,0.32 -0.256,0.384 -0.32,0.128 -0.32,0.384 0,-0.064 0.192,0.384 0.128,0.064 0,0.384 0,0 -0.128,0.128 0.128,0.832 0.192,1.408 0.064,0.512 0.064,0.64 -0.064,0.192 -0.128,0.512 -0.064,0.256 -0.192,0.576 l 0.128,0.512 -0.064,2.112 -0.768,1.28 -0.256,0.96 q -0.128,0.128 -0.256,0.128 -0.064,-0.064 -0.192,-0.064 -0.128,0 -0.448,0.256 v 0.64 q -1.472,1.408 -1.664,1.344 l -0.256,-0.064 q 0.064,0 -1.664,0.576 -0.064,0.064 -0.128,0.128 -0.064,0.128 -0.192,0.32 h -0.192 l -0.448,-0.128 q -0.192,0 -1.28,0.256 l -0.576,-0.192 z m -2.624,-26.176 q 0.064,0 -0.128,-0.256 l -0.192,0.128 q 0.064,0.064 0.128,0.064 0.128,0 0.192,0.064 z m 7.552,0.512 0.256,-0.192 q -0.064,-0.256 -0.32,-0.192 z m -7.552,0.512 q 0.064,-0.128 -0.064,-0.256 -0.128,-0.128 -0.256,0 0,0.128 0.32,0.256 z m 3.328,19.392 q 0.064,-0.064 0.704,-0.384 0.512,-0.192 0.448,-0.192 h -0.064 q 0.064,0 0.064,0 l 0.384,0.128 q 0.128,0 0.32,-0.256 -0.32,-0.448 -0.32,-0.704 l 0.128,-0.576 q 0.128,-0.128 0.192,-0.128 l 0.128,0.128 q -0.064,0.192 0,0.448 l 0.256,-0.192 v -0.384 l -0.448,-0.896 q 0.256,-0.128 0.512,-0.384 -0.32,-0.768 -0.256,-1.216 l 0.064,-0.448 q 0.064,-0.256 0.064,-0.384 0,-0.192 0,-0.256 0.128,-0.128 0.384,-0.192 0.512,-0.128 0.512,-0.704 0,-0.128 -0.192,-0.128 -0.128,0 -0.32,-0.256 -0.064,-0.064 -0.256,-0.064 -0.32,-0.512 -0.32,-0.768 0.128,-0.896 0.192,-0.768 0.192,0 0.192,-1.024 0.128,-0.96 0,-1.28 -0.128,-0.512 -0.192,-0.512 v 0.064 q 0,-0.064 0,-0.064 0.064,-0.256 0.128,-0.64 0.064,-0.448 0.128,-0.96 0.064,-0.064 0.128,-0.128 0.128,-0.064 0.192,-0.128 0.192,-0.192 0.192,-0.32 l -0.192,-0.256 q -0.256,-0.256 -0.256,-0.768 0.192,-0.192 0.256,-0.448 l 0.064,-0.896 q 0.128,-0.128 0.192,-0.384 0,-0.064 0,-0.192 0,-0.128 -0.128,-0.256 l -0.192,-0.32 q 0.064,-0.96 0.128,-0.896 l -0.256,-0.064 q -0.128,-0.064 -0.256,-0.064 -0.064,0 -0.064,-0.064 -0.256,-0.32 -0.384,-0.192 l -0.448,0.128 q -0.32,0 -0.704,-0.512 h -0.256 l -0.128,0.448 q -0.128,0.384 -0.384,0.32 l -0.512,0.128 q 0.384,0.064 0.384,0.384 l -0.384,1.28 q 0.064,-0.064 0.128,0.576 v 0.192 q 0,0.64 -0.256,1.664 -0.192,0.192 -0.256,0.384 v 0.576 q 0,0.192 0,0.384 0.064,0.192 0,0.448 0,0.128 -0.064,0.256 0,0.128 0,0.256 0,0.384 0.192,0.576 0.192,0.704 0.128,1.472 -0.128,0.128 -0.256,0.384 -0.128,0.192 -0.256,0.448 l 0.32,0.768 q 0,0.128 -0.064,0.192 -0.384,0 -0.512,0.064 0.384,0.64 0.384,0.768 l -0.192,0.832 q -0.064,0.064 -0.128,0.128 -0.064,0.064 -0.128,0.192 v 0.064 l 0.192,0.768 q 0,0.448 -0.64,0.256 v 0.256 q 0.32,0.128 0.704,0.576 -0.064,0.448 -0.064,1.088 0,0.576 0,1.28 0.128,0.192 0.448,0.832 0.128,0 0.512,0.128 -0.064,0.192 0,0.384 z m -4.096,-13.312 0.512,-0.192 q 0.192,-0.32 0.192,-0.704 0.128,-0.128 -0.128,-0.32 l -0.384,0.32 h -0.128 q -0.192,-0.384 -0.448,-0.384 -0.256,0 -0.256,0.384 0,0.384 0.128,0.512 z m 9.28,4.608 0.192,-0.128 q 0,-0.128 -0.064,-0.192 z m -10.176,2.944 -0.064,-0.704 q -0.128,0.128 -0.256,0.448 0,0.128 0.32,0.256 z m 10.624,5.248 q 0.256,0.128 0.32,-0.064 -0.064,-0.064 -0.128,-0.128 0,-0.064 -0.128,-0.128 z m 1.472,0.768 q 0.192,-0.256 0.064,-0.384 l -0.448,0.064 q 0.064,0.064 0,0.32 z m -11.776,3.2 q 0.192,0 0.384,-0.192 v -0.448 l -0.384,-0.192 q -0.32,0 -0.32,0.448 -0.064,0.384 0.32,0.384 z m 39.23202,1.536 -0.448,-0.192 q -0.384,-0.128 -0.832,-0.128 l -0.512,0.192 -0.512,-0.128 q -0.064,0.064 -0.192,0.064 -0.128,0 -0.256,0.064 l -0.256,-0.128 q -0.256,-0.128 -0.32,-0.128 l -0.32,0.064 q -0.064,-0.32 -0.128,-0.512 0,-0.256 0,-0.384 l 0.192,-0.576 q 0.064,-0.256 0.064,-0.896 0,-0.704 0,-1.728 l 0.128,-0.704 q 0,-0.512 0.192,-1.088 0.64,-0.256 0.64,-0.64 l -0.896,-1.344 0.064,-1.856 q 0,-0.64 0.576,-1.28 -0.32,-0.768 -0.32,-0.512 l 0.064,-2.176 q 0.192,0 0.32,-0.128 l -0.32,-0.384 0.128,-0.576 q -0.32,-0.32 -0.32,-0.96 0,-0.384 0.064,-0.64 l -0.192,-0.256 q 0.192,-0.192 0.384,-0.256 -0.128,-0.384 -0.128,-0.512 0,-0.384 0.384,-0.576 -0.256,-0.832 -0.256,-0.768 v 0 0.064 q 0,-0.064 0,-0.064 0,0 0,0 0.064,-0.384 0.448,-0.768 -0.064,-0.064 -0.128,-0.128 -0.064,-0.064 -0.128,-0.128 v -1.088 q -0.256,-0.256 -0.256,-0.384 v -1.088 q -0.064,-0.064 -0.512,-0.064 l -0.384,0.064 q -0.192,0.064 -0.384,0.064 l -0.192,-0.064 q -0.128,-0.064 -0.256,-0.064 -0.064,0 -0.32,0.128 l 0.128,0.256 q -0.192,0.576 -0.448,0.576 l -0.064,-0.064 h -0.128 q 0.128,0 -0.704,0.448 0,0.256 0,0.512 0,0.192 -0.064,0.448 -0.064,0.768 -0.256,0.768 h -0.064 l -0.064,0.064 q 0,0.448 0.384,0.448 0.128,0 0.256,-0.128 l -0.256,0.832 q 0.064,0.128 0.128,0.32 0.064,0.128 0.128,0.256 l -0.32,0.64 q -0.064,-0.064 -0.32,0 0.448,0.192 0.448,0.64 0,0.192 -0.32,0.512 0.256,0.576 0.384,0.448 -0.064,0.256 -0.192,1.024 v 0.768 q 0,0.704 -0.064,0.896 l -0.192,0.448 q 0,0 0.192,0.32 l 0.128,0.384 q 0.064,0.448 0.064,1.024 0,0.576 0,1.408 l -0.192,0.896 q -0.064,0.128 -0.064,0.512 0,0.192 0,0.448 0.064,0.192 0.128,0.512 0,0.128 -0.064,0.256 0,0.128 -0.064,0.256 -0.256,0.512 -0.256,0.704 l 0.192,0.896 -0.384,0.832 q -0.256,0.448 -0.256,0.704 0,0.064 0.064,0.064 0,0 0.384,-0.128 l 0.192,0.384 q 0.064,0.64 0.064,0.896 0.064,0.256 0.064,0.192 l -0.128,0.512 v 0.896 q -1.28,0.256 -1.344,0.256 h 0.064 q 0,0 0,0 0,0 -0.064,0 l -0.192,-0.064 q -0.256,-0.128 -0.32,-0.128 l -0.512,0.192 q 0,0 -0.384,-0.128 l -0.384,-0.192 q -0.128,0 -0.256,0.064 -0.192,0 -0.832,-0.512 -0.192,0.704 -0.768,0.704 -0.448,0 -0.832,-0.192 -0.384,-0.32 -0.384,-1.152 0,-0.896 0.768,-1.344 l -0.448,-0.32 0.064,-0.384 q -0.192,-0.576 -0.192,-0.704 0.064,-0.128 0.128,-0.32 0.128,-0.256 0.192,-0.576 l -0.128,-1.024 q 0,-0.448 0.32,-0.768 0,-0.192 -0.192,-0.384 -0.128,-0.256 -0.128,-0.384 l 0.192,-0.512 0.128,-0.512 -0.256,-0.768 0.128,-0.896 0.128,-0.768 q 0,0 -0.128,-0.128 -0.192,-0.32 -0.192,-0.768 0,-0.512 0.192,-1.152 0.192,-0.192 0.256,-0.448 l -0.128,-0.64 q -0.192,-0.512 -0.192,-0.64 l 0.256,-1.28 q 0.64,-0.064 0.64,-0.256 0,-0.128 -0.256,-0.384 -0.192,-0.192 -0.32,-0.448 0.064,-0.192 0.064,-0.768 -0.192,-0.448 -0.256,-0.512 0.064,-0.064 0.128,-0.192 0.064,-0.128 0.128,-0.32 0,0 -0.256,-0.448 l 0.064,-2.752 q 0.064,-0.256 0,-0.32 l -0.128,0.064 q -0.192,-0.256 -0.448,-0.448 l -0.512,0.064 q -0.256,0.064 -0.384,0.128 -0.128,0 -0.256,0 -0.64,0.512 -0.512,0.512 l -0.384,-0.064 q -0.064,0.64 -0.384,1.152 -0.256,0.128 -0.512,0.384 l -0.128,0.448 0.256,1.024 q 0,0 -0.128,0.256 -0.192,0.256 -0.192,0.384 l 0.256,1.28 q 0,0.064 -0.32,0.896 -0.32,0.96 -0.32,0.96 v 0.192 q 0.128,-0.064 0.192,-0.128 0.128,-0.064 0.256,-0.128 l 0.128,1.472 -0.192,1.088 -0.256,1.088 q 0,0.448 0.256,0.896 -0.128,0.32 -0.384,0.32 0.192,1.024 0.192,1.472 -0.064,0.128 -0.128,0.32 -0.064,0.192 -0.128,0.448 l 0.064,0.32 q 0.128,0.256 0.192,0.32 0.064,0.256 0.064,0.576 0,0.256 0,0.704 -0.128,-0.128 -0.256,0.832 l 0.128,0.256 q 0.192,0.384 -0.256,0.576 0,0.064 0.192,0.256 0.128,0.256 0.128,0.32 0,0.192 -0.256,0.256 l -0.448,0.192 v 0.256 q 0.32,0.128 0.448,0.32 -0.064,0.256 -0.064,0.64 0,0.32 0,0.832 0.192,1.024 0.192,0.896 0,0.64 -0.704,0.64 -0.064,0 -0.32,-0.064 -0.192,-0.128 -0.32,-0.192 -0.064,0 -0.128,0.064 -0.128,0.128 -0.256,0.128 l -0.128,-0.064 q -0.064,-0.064 -0.128,-0.064 l -0.64,0.32 q -0.064,-0.064 -0.448,-0.192 -0.32,-0.064 -0.576,-0.064 -0.192,-0.064 -0.32,-0.064 l -0.64,0.064 q -0.32,0.064 -0.512,0.064 -0.192,0 -0.256,0 -0.064,0 -0.256,-0.192 -0.256,-0.192 -0.32,-0.192 l -0.384,0.32 h -0.32 v -0.192 q 0,-0.128 0,-0.384 0,-0.256 0.064,-0.64 0.256,0 0.512,-0.192 0,0 -0.512,-0.64 v -0.896 q 0.32,-0.32 0.32,-0.512 0,-0.192 -0.192,-0.576 -0.192,-0.384 -0.192,-0.576 0,-0.064 0.32,-0.512 l -0.064,-0.64 q 0.064,-0.128 0.064,-0.256 0,-0.128 0.064,-0.32 l -0.128,-0.32 q 0,0 0.128,-0.256 l 0.064,-0.192 q 0,-0.064 0,-0.192 0,-0.128 -0.064,-0.32 -0.064,-0.256 -0.128,-0.384 0,-0.192 0,-0.256 v -1.536 l 0.128,-0.192 q -0.128,0 -0.128,-0.128 l 0.128,-0.064 q 0.064,-0.128 0.064,-0.256 0.064,-0.192 0,-0.448 l -0.064,-0.32 q 0,-0.064 0,-0.256 0,-0.192 -0.064,-0.512 0,0.128 0.384,-0.64 0.064,-0.192 0.064,-0.832 0,0.064 -0.384,-0.384 v -0.192 q 0.064,-0.192 0.128,-0.448 0.128,-0.256 0.192,-0.512 l -0.128,-0.384 q -0.128,-0.384 -0.128,-0.384 0,-0.384 0.192,-0.448 0.192,-0.128 0.192,-0.256 0,0.128 -0.256,-0.384 v -0.384 q 0,-0.32 0.256,-0.576 0.192,-0.32 0.192,-0.32 -0.256,-0.32 -0.576,-0.768 l 0.32,-1.216 q 0.128,-0.128 0.192,-0.256 l -0.32,-0.384 v -1.088 q 0.64,-0.192 0.64,-0.128 0,-0.192 -0.256,-0.448 0.064,-0.192 0.064,-0.704 -0.384,-0.768 -0.384,-1.216 l 0.32,-2.624 q -0.064,-0.32 -0.128,-0.704 -0.064,-0.448 -0.192,-0.896 0,-0.384 0.384,-0.384 0.128,0 0.448,0.256 0.256,0.256 0.384,0.256 l 0.128,-0.064 h 0.128 q 0.064,0 0.128,0.064 0.064,0 0.192,0.064 0.192,0.192 0.32,0.192 h 0.448 q 0,0.192 -0.064,0.384 l 0.128,0.128 q 0.192,0 0.32,-0.384 0.192,-0.384 0.128,-0.704 h 0.384 q 0.32,0.32 0.384,0.32 0.192,0 0.256,-0.064 l 0.192,-0.064 0.64,0.192 0.64,0.256 q 0.128,0 0.384,-0.256 0.128,0.128 0.32,0.32 0.192,0.128 0.448,0.32 -0.064,0.064 -0.192,0.192 -0.064,0.128 -0.256,0.32 0.384,0.512 0.704,0.512 l 0.128,-0.064 q 0.192,-0.192 0.256,-0.32 l 0.64,-0.192 q 0.512,-0.128 0.512,-0.512 0.192,-0.192 0.384,-0.256 0.32,-0.256 0.832,-0.256 0,0 0.256,0.128 0.064,-0.064 0.64,-0.256 l 0.512,-0.064 q 0.256,-0.256 0.384,-0.256 0.128,0 0.384,0.192 0.192,0.192 0.32,0.192 l 0.512,-0.192 q 0.128,0 1.344,0.768 h 0.32 l 0.768,0.768 v 0.128 q 0,0.32 0.32,0.64 -0.256,0 -0.256,0.192 0,0.704 1.216,0.704 0.064,0 0.512,-0.576 0.512,-0.576 0.64,-0.576 v 0.064 q 0.256,-0.192 0.192,-0.448 l -0.128,-0.384 q 0,-0.384 0.32,-0.384 l 0.448,0.384 q 0.128,-0.064 0.192,-0.064 0.128,0 0.192,-0.064 0.256,-0.064 0.256,-0.32 v -0.192 q 0.128,0.064 0.384,0.064 0.448,0 0.448,-0.448 v -0.128 q 0.128,0.128 0.512,0.384 h 0.192 q 0.832,0 0.832,-0.512 l 0.64,0.448 q 0.128,0.384 0.384,0.768 0.128,0 0.384,-0.64 h 0.32 q 0.128,0.32 0.384,0.32 l 0.32,-0.064 q 0.128,0 0.256,0.32 v 0.256 q 0.064,0.064 0.32,0.192 l 0.704,1.216 q -0.064,0.064 -0.064,0.256 0,0.128 -0.064,0.32 l 0.32,0.384 q 0.064,0.192 0.064,0.704 0,0.512 0,1.344 v 0.064 l -0.064,0.128 q 0,0 0.064,0.32 0.064,0.064 -0.128,0.512 v 0.128 q -0.256,0.064 -0.448,0.384 v 0.256 q 0,0.128 -0.128,0.384 -0.128,0.256 -0.128,0.32 0,0.128 0.192,0.448 0.448,1.152 0.384,1.408 -0.384,0.128 -0.448,0.768 l 0.64,0.256 v 0.256 q -0.064,0.064 -0.128,0.128 -0.064,0.064 -0.192,0.192 0,0.128 0.192,0.32 0.064,0.128 0.064,0.192 0.064,0.064 0.064,0.128 0,0.128 -0.32,0.448 0.128,0.576 0.192,0.96 0.128,0.384 0.064,0.576 v 2.816 q 0,0.128 -0.32,1.216 0.064,0.256 0.064,0.32 0.064,0.064 0.064,0 v 2.112 l -0.064,0.192 q -0.128,0.256 -0.128,0.256 0.128,0.576 0.064,0.704 l -0.32,0.448 -0.064,1.216 q -0.192,-0.192 -0.384,-0.192 -0.384,0 -0.384,0.32 0,0.32 0.384,0.64 0.256,0.256 0.512,0.256 v 0.512 q 0.192,0.448 0.256,0.448 l -0.32,0.896 q 0,0.064 0,0.256 0.064,0.128 0.128,0.384 0.064,0 -0.064,0.512 0.256,0.256 0.256,0.512 0,0.192 -0.192,0.512 -0.192,0.32 -0.384,0.32 l -0.448,0.064 h -0.448 l -0.384,-0.128 q -0.384,-0.192 -0.448,-0.192 -0.064,0.192 -0.512,0.384 z m -18.24,-27.904 0.256,-0.192 -0.064,-0.128 q -0.128,0.128 -0.192,0.32 z m 5.76,1.408 0.448,-0.128 q -0.192,-0.32 -0.64,-0.576 -0.064,0.064 -0.192,0.384 v 0.192 q 0.128,0.192 0.384,0.128 z m -8.256,0.576 q 0.192,0 0.256,-0.064 0.128,-0.128 0,-0.32 -0.128,0 -0.256,0.384 z m 18.432,1.472 q 0.128,0 0.64,-0.32 l 0.128,-0.704 q 0,-0.256 -0.32,-0.576 l -0.256,0.064 q -0.128,0.064 -0.192,0.128 -0.064,0 -0.128,0 -0.768,0 -0.896,0 0.064,0.128 0.448,0.576 -0.064,0.256 0,0.512 0.256,0.256 0.576,0.32 z m -15.36,2.56 q 0.064,-0.128 -0.128,-0.256 -0.064,-0.064 -0.256,0 0,0.256 0.384,0.256 z m 9.92,0.256 q 0,-0.192 -0.064,-0.256 -0.128,-0.128 -0.32,0 0,0.128 0.384,0.256 z m -4.48,2.944 q 0,-0.128 0,-0.064 z m 12.992,4.608 q 0,-0.128 -0.128,-0.256 -0.064,-0.128 -0.256,0.064 0,0.192 0.384,0.192 z m -20.608,5.632 q 0.256,0 0.512,-0.384 0.192,-0.32 0.192,-0.576 -0.192,-0.32 -0.768,-0.576 h -0.064 q -0.64,0 -1.024,0.896 0.448,0.512 1.152,0.64 z m 1.28,4.928 q 0.064,-0.064 -0.128,-0.256 l -0.192,0.128 q 0.128,0 0.192,0.064 z m 21.376,-0.064 q 0,0.128 0,0.064 z m -20.672,1.6 v -0.064 q 0,-0.192 -0.256,-0.32 -0.192,-0.128 -0.384,0 v 0.192 q 0,0.448 0.64,0.192 z"
        />
  </g>
</svg>
